<svg version="1" xmlns="http://www.w3.org/2000/svg" width="400" height="400" viewBox="0 0 300.000000 300.000000"><path d="M105.8 57c-28.6 5.2-47.7 25.6-51.7 55.3-1.4 10.2-1.4 67.3 0 77.2 4.6 33 27.2 54.2 59.9 56.2 16.6 1 31.4-3 43.9-11.8 11.1-7.8 18.9-19.4 23.3-34.6 2.2-7.5 2.3-9.2 2.3-48.3 0-39.3-.1-40.7-2.3-48.5-8.3-28.6-29.6-45-59.7-46-6-.2-13.1 0-15.7.5zM135 85.1c10.4 4.8 16.3 11.9 20.1 24 1.7 5.5 1.9 9.6 1.9 41.3 0 28.4-.3 36.3-1.5 41.1-3.2 12.3-9.7 20.4-20.4 25.4-5 2.3-6.8 2.6-16.6 2.6-9.3 0-11.8-.4-15.9-2.3-10.7-4.9-18-13.9-21.1-25.9-1.4-5.3-1.6-12-1.3-43 .3-35.6.4-37 2.6-42.5 4.4-10.8 11.9-18.2 22.5-22 7.8-2.8 22.2-2.1 29.7 1.3zM221 151v93h26V58h-26v93z"/></svg>