<svg xmlns="http://www.w3.org/2000/svg" xmlns:xlink="http://www.w3.org/1999/xlink" viewBox="0 0 133.61 176.44"><defs><style>.cls-1{isolation:isolate;}.cls-2{fill:url(#linear-gradient);}.cls-3{fill:url(#linear-gradient-2);}.cls-4{fill:url(#linear-gradient-3);}.cls-5{fill:url(#linear-gradient-4);}.cls-6{fill:url(#linear-gradient-5);}.cls-7{fill:url(#linear-gradient-6);}.cls-8{fill:url(#linear-gradient-7);}.cls-9{fill:url(#linear-gradient-8);}.cls-10{fill:url(#linear-gradient-9);}.cls-11{fill:url(#linear-gradient-10);}.cls-12{fill:#cec4d6;}.cls-13{fill:#e5dfe9;}.cls-14{fill:url(#linear-gradient-11);}.cls-15{fill:url(#linear-gradient-12);}.cls-16{fill:#5c479e;}.cls-17{fill:#aca5b5;}.cls-18{fill:#c0b8cc;}.cls-19{fill:#34254c;}.cls-20{fill:#51347f;}.cls-21{fill:url(#linear-gradient-13);}.cls-22{fill:url(#linear-gradient-14);}.cls-23{fill:url(#linear-gradient-15);}.cls-24{fill:url(#linear-gradient-16);}.cls-25{fill:url(#linear-gradient-17);}.cls-26{fill:url(#linear-gradient-18);}.cls-27{fill:url(#linear-gradient-19);}.cls-28{fill:url(#linear-gradient-20);}.cls-29{fill:url(#linear-gradient-21);}.cls-30{fill:url(#linear-gradient-22);}.cls-31{fill:url(#linear-gradient-23);}.cls-32{fill:url(#linear-gradient-24);}.cls-33{fill:url(#linear-gradient-25);}.cls-34{fill:url(#linear-gradient-26);}.cls-35{fill:#c8b8d3;}.cls-36{fill:url(#linear-gradient-27);}.cls-37{fill:url(#linear-gradient-28);}.cls-38{fill:url(#linear-gradient-29);}.cls-39{fill:url(#linear-gradient-30);}.cls-40{fill:url(#linear-gradient-31);}.cls-41{fill:url(#linear-gradient-32);}.cls-42{fill:url(#linear-gradient-33);}.cls-43{fill:url(#linear-gradient-34);}.cls-44{fill:url(#linear-gradient-35);}.cls-45{fill:#2d2244;}.cls-46{fill:url(#linear-gradient-36);}.cls-47{fill:url(#linear-gradient-37);}.cls-48{fill:url(#linear-gradient-38);}.cls-49{fill:url(#linear-gradient-39);}.cls-50{fill:url(#linear-gradient-40);}.cls-51{fill:url(#linear-gradient-41);}.cls-52{fill:url(#linear-gradient-42);}.cls-53{fill:url(#linear-gradient-43);}.cls-54{fill:url(#linear-gradient-44);}.cls-55{fill:url(#linear-gradient-45);}.cls-56{fill:url(#linear-gradient-46);}.cls-57{fill:url(#linear-gradient-47);}.cls-58{fill:url(#linear-gradient-48);}.cls-59{fill:url(#linear-gradient-49);}.cls-60{fill:url(#linear-gradient-50);}.cls-61{fill:url(#linear-gradient-51);}.cls-62{fill:url(#linear-gradient-52);}.cls-63{fill:url(#linear-gradient-53);}.cls-64{fill:url(#linear-gradient-54);}.cls-65{fill:url(#linear-gradient-55);}.cls-66{fill:url(#linear-gradient-56);}.cls-67{fill:url(#linear-gradient-57);}.cls-68{fill:url(#linear-gradient-58);}.cls-69{fill:url(#linear-gradient-59);}.cls-70{fill:url(#linear-gradient-60);}.cls-71{fill:url(#linear-gradient-61);}.cls-72{fill:url(#linear-gradient-62);}.cls-73{fill:url(#linear-gradient-63);}.cls-74{fill:url(#linear-gradient-64);}.cls-75{fill:url(#linear-gradient-65);}.cls-76{fill:url(#linear-gradient-66);}.cls-77{fill:#988ca5;}.cls-78{fill:url(#linear-gradient-67);}.cls-79{fill:url(#linear-gradient-68);}.cls-80,.cls-81{mix-blend-mode:overlay;}.cls-80{fill:url(#linear-gradient-69);}.cls-81{opacity:0.57;fill:url(#linear-gradient-70);}</style><linearGradient id="linear-gradient" x1="46.86" y1="-10.58" x2="94.28" y2="-10.58" gradientTransform="matrix(1, -0.07, 0.07, 1, -6.52, 50.85)" gradientUnits="userSpaceOnUse"><stop offset="0" stop-color="#34254c"/><stop offset="1" stop-color="#51397f"/></linearGradient><linearGradient id="linear-gradient-2" x1="38.99" y1="43.95" x2="94.1" y2="43.95" gradientTransform="matrix(1, -0.07, 0.07, 1, -6.52, 50.85)" gradientUnits="userSpaceOnUse"><stop offset="0" stop-color="#e1dae5"/><stop offset="1" stop-color="#f7f4f9"/></linearGradient><linearGradient id="linear-gradient-3" x1="22.34" y1="18.49" x2="37.85" y2="18.49" gradientTransform="matrix(1, -0.07, 0.07, 1, -6.52, 50.85)" gradientUnits="userSpaceOnUse"><stop offset="0" stop-color="#c8b8d3"/><stop offset="1" stop-color="#c8b8d3" stop-opacity="0.3"/></linearGradient><linearGradient id="linear-gradient-4" x1="20.19" y1="33.35" x2="85.43" y2="33.35" xlink:href="#linear-gradient-3"/><linearGradient id="linear-gradient-5" x1="43.3" y1="82.54" x2="56.7" y2="82.54" gradientTransform="matrix(1, -0.07, 0.07, 1, -6.52, 50.85)" gradientUnits="userSpaceOnUse"><stop offset="0" stop-color="#c8b8d3" stop-opacity="0.9"/><stop offset="1" stop-color="#c8b8d3" stop-opacity="0.3"/></linearGradient><linearGradient id="linear-gradient-6" x1="54.58" y1="54.58" x2="95.22" y2="54.58" xlink:href="#linear-gradient-5"/><linearGradient id="linear-gradient-7" x1="89.83" y1="75.31" x2="107.44" y2="75.31" xlink:href="#linear-gradient-5"/><linearGradient id="linear-gradient-8" x1="118.07" y1="43.1" x2="102.46" y2="51.29" gradientTransform="matrix(1, -0.07, 0.07, 1, -6.52, 50.85)" gradientUnits="userSpaceOnUse"><stop offset="0" stop-color="#fff"/><stop offset="1" stop-color="#fff" stop-opacity="0"/></linearGradient><linearGradient id="linear-gradient-9" x1="44.88" y1="-9.64" x2="55.29" y2="7.62" xlink:href="#linear-gradient-3"/><linearGradient id="linear-gradient-10" x1="96.9" y1="-18.49" x2="87.76" y2="-2.25" xlink:href="#linear-gradient-8"/><linearGradient id="linear-gradient-11" x1="46.25" y1="31.77" x2="86.27" y2="31.77" xlink:href="#linear-gradient"/><linearGradient id="linear-gradient-12" x1="53.17" y1="33.02" x2="100.29" y2="31.04" gradientTransform="matrix(1, -0.07, 0.07, 1, -6.52, 50.85)" gradientUnits="userSpaceOnUse"><stop offset="0" stop-color="#2d2244"/><stop offset="1" stop-color="#3e2c5e" stop-opacity="0"/></linearGradient><linearGradient id="linear-gradient-13" x1="50.23" y1="-10.61" x2="58.11" y2="15.36" gradientTransform="matrix(1, -0.07, 0.07, 1, -6.52, 50.85)" gradientUnits="userSpaceOnUse"><stop offset="0" stop-color="#ce1d3b"/><stop offset="1" stop-color="#ed202e"/></linearGradient><linearGradient id="linear-gradient-14" x1="84.5" y1="-22.32" x2="89.33" y2="-0.13" xlink:href="#linear-gradient-13"/><linearGradient id="linear-gradient-15" x1="56.94" y1="16.38" x2="80.17" y2="14.9" gradientTransform="matrix(1, -0.07, 0.07, 1, -6.52, 50.85)" gradientUnits="userSpaceOnUse"><stop offset="0" stop-color="#a193ad"/><stop offset="1" stop-color="#cec4d6"/></linearGradient><linearGradient id="linear-gradient-16" x1="73.69" y1="24.93" x2="70.52" y2="0.37" xlink:href="#linear-gradient-2"/><linearGradient id="linear-gradient-17" x1="58.05" y1="27.47" x2="70.77" y2="15.91" gradientTransform="matrix(1, -0.07, 0.07, 1, -6.52, 50.85)" gradientUnits="userSpaceOnUse"><stop offset="0" stop-color="#cec4d6"/><stop offset="1" stop-color="#cec4d6" stop-opacity="0"/></linearGradient><linearGradient id="linear-gradient-18" x1="64.1" y1="22.47" x2="62.42" y2="11.11" gradientTransform="matrix(1, -0.07, 0.07, 1, -6.52, 50.85)" gradientUnits="userSpaceOnUse"><stop offset="0" stop-color="#34254c"/><stop offset="1" stop-color="#432a68"/></linearGradient><linearGradient id="linear-gradient-19" x1="71.66" y1="21.35" x2="69.97" y2="9.99" xlink:href="#linear-gradient-18"/><linearGradient id="linear-gradient-20" x1="66.75" y1="17.93" x2="65.92" y2="9.27" xlink:href="#linear-gradient-15"/><linearGradient id="linear-gradient-21" x1="77.28" y1="11.59" x2="80.22" y2="8.44" gradientTransform="matrix(1, -0.07, 0.07, 1, -6.52, 50.85)" gradientUnits="userSpaceOnUse"><stop offset="0" stop-color="#3492b7"/><stop offset="1" stop-color="#4cc8e5"/></linearGradient><linearGradient id="linear-gradient-22" x1="78.25" y1="16.55" x2="81.56" y2="16.55" gradientTransform="matrix(1, -0.07, 0.07, 1, -6.52, 50.85)" gradientUnits="userSpaceOnUse"><stop offset="0" stop-color="#d733db"/><stop offset="1" stop-color="#f43ef9"/></linearGradient><linearGradient id="linear-gradient-23" x1="78.83" y1="-2.58" x2="84.96" y2="-4.17" gradientTransform="matrix(1, -0.07, 0.07, 1, -6.52, 50.85)" gradientUnits="userSpaceOnUse"><stop offset="0" stop-color="#1e45a5"/><stop offset="1" stop-color="#2265c6"/></linearGradient><linearGradient id="linear-gradient-24" x1="53.04" y1="1.62" x2="64.6" y2="-1.21" xlink:href="#linear-gradient"/><linearGradient id="linear-gradient-25" x1="55.61" y1="-13.15" x2="86.14" y2="-13.15" xlink:href="#linear-gradient"/><linearGradient id="linear-gradient-26" x1="51.95" y1="-21.75" x2="48.58" y2="-20.91" xlink:href="#linear-gradient-2"/><linearGradient id="linear-gradient-27" x1="86.15" y1="-30.11" x2="89.1" y2="-30.72" xlink:href="#linear-gradient-2"/><linearGradient id="linear-gradient-28" x1="59.48" y1="-44.54" x2="69.26" y2="-44.54" xlink:href="#linear-gradient-2"/><linearGradient id="linear-gradient-29" x1="53.48" y1="-25.65" x2="86.6" y2="-36.79" xlink:href="#linear-gradient-2"/><linearGradient id="linear-gradient-30" x1="62.03" y1="-15.59" x2="70.23" y2="-44.66" gradientTransform="matrix(1, -0.07, 0.07, 1, -6.52, 50.85)" gradientUnits="userSpaceOnUse"><stop offset="0" stop-color="#c8b8d3"/><stop offset="1" stop-color="#c8b8d3" stop-opacity="0"/></linearGradient><linearGradient id="linear-gradient-31" x1="61.46" y1="-11.02" x2="78.8" y2="-15.33" xlink:href="#linear-gradient-2"/><linearGradient id="linear-gradient-32" x1="51.17" y1="-21.91" x2="91.23" y2="-29.06" gradientTransform="matrix(1, -0.07, 0.07, 1, -6.52, 50.85)" gradientUnits="userSpaceOnUse"><stop offset="0" stop-color="#201d21"/><stop offset="1" stop-color="#524b56"/></linearGradient><linearGradient id="linear-gradient-33" x1="45.83" y1="-22.93" x2="64.54" y2="-23.97" gradientTransform="matrix(1, -0.07, 0.07, 1, -6.52, 50.85)" gradientUnits="userSpaceOnUse"><stop offset="0" stop-color="#111011"/><stop offset="1" stop-color="#111011" stop-opacity="0"/></linearGradient><linearGradient id="linear-gradient-34" x1="73.35" y1="-39.02" x2="78.61" y2="-23.57" gradientTransform="matrix(1, -0.07, 0.07, 1, -6.52, 50.85)" gradientUnits="userSpaceOnUse"><stop offset="0" stop-color="#ede7f2"/><stop offset="1" stop-color="#ede7f2" stop-opacity="0"/></linearGradient><linearGradient id="linear-gradient-35" x1="80.71" y1="-27.05" x2="85.97" y2="-19.8" xlink:href="#linear-gradient-34"/><linearGradient id="linear-gradient-36" x1="91.57" y1="47.4" x2="112.42" y2="47.4" xlink:href="#linear-gradient"/><linearGradient id="linear-gradient-37" x1="51.83" y1="61.66" x2="30.3" y2="48.18" xlink:href="#linear-gradient"/><linearGradient id="linear-gradient-38" x1="103.19" y1="13.65" x2="100.99" y2="-5.75" xlink:href="#linear-gradient"/><linearGradient id="linear-gradient-39" x1="38.8" y1="11.66" x2="42.48" y2="11.66" xlink:href="#linear-gradient"/><linearGradient id="linear-gradient-40" x1="53.25" y1="1.23" x2="64.82" y2="-1.6" xlink:href="#linear-gradient-15"/><linearGradient id="linear-gradient-41" x1="36.69" y1="12.28" x2="18.08" y2="-6.17" xlink:href="#linear-gradient-2"/><linearGradient id="linear-gradient-42" x1="18.06" y1="-10.19" x2="23.25" y2="-10.19" xlink:href="#linear-gradient-2"/><linearGradient id="linear-gradient-43" x1="14.08" y1="-3.32" x2="19.65" y2="-3.32" xlink:href="#linear-gradient-2"/><linearGradient id="linear-gradient-44" x1="10.73" y1="5.85" x2="18.85" y2="5.85" xlink:href="#linear-gradient-2"/><linearGradient id="linear-gradient-45" x1="11.22" y1="14.08" x2="21.19" y2="14.08" xlink:href="#linear-gradient-2"/><linearGradient id="linear-gradient-46" x1="30.42" y1="-6.37" x2="26.16" y2="9.4" xlink:href="#linear-gradient-3"/><linearGradient id="linear-gradient-47" x1="42.63" y1="9.59" x2="30.01" y2="0.55" xlink:href="#linear-gradient-3"/><linearGradient id="linear-gradient-48" x1="34.6" y1="-8.32" x2="35.65" y2="-14.1" xlink:href="#linear-gradient"/><linearGradient id="linear-gradient-49" x1="19.37" y1="-8.92" x2="23.25" y2="-8.92" xlink:href="#linear-gradient"/><linearGradient id="linear-gradient-50" x1="14.79" y1="-2.71" x2="19.6" y2="-2.71" xlink:href="#linear-gradient"/><linearGradient id="linear-gradient-51" x1="14.95" y1="7.15" x2="18.85" y2="7.15" xlink:href="#linear-gradient"/><linearGradient id="linear-gradient-52" x1="16.43" y1="14.86" x2="21.19" y2="14.86" xlink:href="#linear-gradient"/><linearGradient id="linear-gradient-53" x1="688.21" y1="-6.96" x2="669.6" y2="-25.41" gradientTransform="matrix(-0.99, 0.12, 0.12, 0.99, 782.33, -23.97)" xlink:href="#linear-gradient-2"/><linearGradient id="linear-gradient-54" x1="669.57" y1="-29.44" x2="674.77" y2="-29.44" gradientTransform="matrix(-0.99, 0.12, 0.12, 0.99, 782.33, -23.97)" xlink:href="#linear-gradient-2"/><linearGradient id="linear-gradient-55" x1="665.59" y1="-22.56" x2="671.16" y2="-22.56" gradientTransform="matrix(-0.99, 0.12, 0.12, 0.99, 782.33, -23.97)" xlink:href="#linear-gradient-2"/><linearGradient id="linear-gradient-56" x1="662.25" y1="-13.39" x2="670.37" y2="-13.39" gradientTransform="matrix(-0.99, 0.12, 0.12, 0.99, 782.33, -23.97)" xlink:href="#linear-gradient-2"/><linearGradient id="linear-gradient-57" x1="662.73" y1="-5.16" x2="672.71" y2="-5.16" gradientTransform="matrix(-0.99, 0.12, 0.12, 0.99, 782.33, -23.97)" xlink:href="#linear-gradient-2"/><linearGradient id="linear-gradient-58" x1="681.94" y1="-25.61" x2="677.68" y2="-9.84" gradientTransform="matrix(-0.99, 0.12, 0.12, 0.99, 782.33, -23.97)" xlink:href="#linear-gradient-3"/><linearGradient id="linear-gradient-59" x1="694.15" y1="-9.65" x2="681.53" y2="-18.7" gradientTransform="matrix(-0.99, 0.12, 0.12, 0.99, 782.33, -23.97)" xlink:href="#linear-gradient-3"/><linearGradient id="linear-gradient-60" x1="686.11" y1="-27.57" x2="687.17" y2="-33.35" gradientTransform="matrix(-0.99, 0.12, 0.12, 0.99, 782.33, -23.97)" xlink:href="#linear-gradient"/><linearGradient id="linear-gradient-61" x1="670.89" y1="-28.16" x2="674.77" y2="-28.16" gradientTransform="matrix(-0.99, 0.12, 0.12, 0.99, 782.33, -23.97)" xlink:href="#linear-gradient"/><linearGradient id="linear-gradient-62" x1="666.31" y1="-21.95" x2="671.12" y2="-21.95" gradientTransform="matrix(-0.99, 0.12, 0.12, 0.99, 782.33, -23.97)" xlink:href="#linear-gradient"/><linearGradient id="linear-gradient-63" x1="666.47" y1="-12.1" x2="670.37" y2="-12.1" gradientTransform="matrix(-0.99, 0.12, 0.12, 0.99, 782.33, -23.97)" xlink:href="#linear-gradient"/><linearGradient id="linear-gradient-64" x1="667.95" y1="-4.38" x2="672.71" y2="-4.38" gradientTransform="matrix(-0.99, 0.12, 0.12, 0.99, 782.33, -23.97)" xlink:href="#linear-gradient"/><linearGradient id="linear-gradient-65" x1="96.42" y1="83.93" x2="133.05" y2="83.93" xlink:href="#linear-gradient-2"/><linearGradient id="linear-gradient-66" x1="95.42" y1="108.42" x2="138" y2="72.94" gradientTransform="matrix(1, -0.07, 0.07, 1, -6.52, 50.85)" gradientUnits="userSpaceOnUse"><stop offset="0" stop-color="#bbaec4"/><stop offset="1" stop-color="#ded1e8"/></linearGradient><linearGradient id="linear-gradient-67" x1="-498.41" y1="333.13" x2="-461.77" y2="333.13" gradientTransform="matrix(-0.82, 0.57, 0.57, 0.82, -554.57, 152.56)" xlink:href="#linear-gradient-2"/><linearGradient id="linear-gradient-68" x1="6.97" y1="109.75" x2="57.06" y2="102.65" xlink:href="#linear-gradient-66"/><linearGradient id="linear-gradient-69" x1="125.41" y1="9.64" x2="21.23" y2="81.62" gradientTransform="matrix(1, -0.07, 0.07, 1, -6.52, 50.85)" gradientUnits="userSpaceOnUse"><stop offset="0" stop-color="#04074a"/><stop offset="0.89" stop-opacity="0"/></linearGradient><linearGradient id="linear-gradient-70" x1="116.03" y1="6.03" x2="12.6" y2="103.02" gradientTransform="matrix(1, -0.07, 0.07, 1, -6.52, 50.85)" gradientUnits="userSpaceOnUse"><stop offset="0" stop-color="#04074a"/><stop offset="1" stop-color="#04074a"/></linearGradient></defs><title>aster</title><g class="cls-1"><g id="Layer_2" data-name="Layer 2"><g id="Layer_1-2" data-name="Layer 1"><path class="cls-2" d="M41.55,46.1S38.87,38,39.74,36.79s12.7-6.31,27.81-9.52,15.82-2,17-1.13,2.59,10.1,2.56,12S41.55,46.1,41.55,46.1Z"/><path class="cls-3" d="M113.11,107.89l-1,2.31-7.33,16.15-7,15.47c-3.49-2.45-4.57-11.39-4.4-18.2a54.9,54.9,0,0,0-.78-11.32,15,15,0,0,1-5.14-4.54,28.06,28.06,0,0,1-2.07-3.22h0c-.44-.82-.68-1.35-.68-1.35-8.19.4-13.77-4.91-15.09-5.76s-3.8-.06-6.27,5.48c-2.22,5-7.84,7-8.94,7.36l-.19.06c-.24,1.34-.49,2.55-.75,3.64-2.1,8.83-4.64,10-4.64,10-.28,2.86,1.42,7,1.94,12.35a104.81,104.81,0,0,1,0,13.6l-7.37-4.58L28.91,136.4s-5.47-12.91-5.13-17.2a12.16,12.16,0,0,1,.73-3.26,15.55,15.55,0,0,1,1.39-2.83h0a10.57,10.57,0,0,1,1-1.39s0-.69,0-1.77c0-.48,0-1,.08-1.64a32.13,32.13,0,0,1,.63-4.55A10.39,10.39,0,0,1,28,102.6a12.66,12.66,0,0,1,.83-1.9,15.64,15.64,0,0,1,1-1.56h0l0,0,0,0v0h0l0,0,.08-.11.08-.1.28-.36c.61-.75,1.08-1.19,1.11-1.23h0s.32-1.13.76-2.75c.34-1.25.75-2.79,1.13-4.33.86-3.54.77-4.8,3-6.53s2.76-3.15,4.07-4.18h0l.06,0c.76-.58,2.15-1.46,3.22-2.11h0c.83-.51,1.47-.88,1.47-.88A14.11,14.11,0,0,1,46,71.69a5.88,5.88,0,0,1-.63-1.5c-.21-.67-.35-1.28-.35-1.28-.37.25-.72.47-1.07.67h0C40.11,71.75,37.41,71,37.41,71a14.77,14.77,0,0,1-3,.91,13.77,13.77,0,0,1-3.86.19,18.75,18.75,0,0,1-10.79-5.27l3.32-4.71,7.34-10.4a8.64,8.64,0,0,1,2.93,1.05h0q.34.22.6.42h0l.26.23a3,3,0,0,1,.62.78h0a.1.1,0,0,1,0,.05,0,0,0,0,1,0,0h0a6.25,6.25,0,0,1,.09-.68,4.41,4.41,0,0,1,.43-1.26l.12-.2a2.85,2.85,0,0,1,.67-.76A2.07,2.07,0,0,1,37,51c0-.21,0-.42.07-.62,1-7.67,6-7.85,6-7.85,1-5.76,6.87-5.85,6.87-5.85s1.24.3,3.19.57h0a40.2,40.2,0,0,0,12.64-.06,17.51,17.51,0,0,0,9.71-5.4,12,12,0,0,0,1.06-1.35c4.82-1.11,8.55,5,8.55,5,2.77,0,5,1.85,6.25,3.23a12.37,12.37,0,0,1,1.19,1.48l.09-.12a7.46,7.46,0,0,1,1-1.06h0l0,0h0l.19-.16h0a9.62,9.62,0,0,1,1.78-1.11,10.92,10.92,0,0,1,2.79-.93L105,50.12,106.36,53A10.07,10.07,0,0,1,101,59.54a13.23,13.23,0,0,1-1.31.58,9,9,0,0,1-1,.3c-3.65.85-7.67-.78-10-2h0l-.09-.05-.06,0a.7.7,0,0,1-.14-.08,16.42,16.42,0,0,1-1.58-.93,11.72,11.72,0,0,1,.54,2h0c0,.13,0,.27.07.4a23.37,23.37,0,0,1,.12,6,19.62,19.62,0,0,1,1.12,4.57,4.42,4.42,0,0,1-.4,2.91l0,.06.37-.2h0A8.09,8.09,0,0,1,90,72.59l.26-.06h0c.31-.06.67-.11,1.06-.15h0A13.65,13.65,0,0,1,97,73.2h0l.18.07.34.12c6,2.28,8.55,11.91,8.55,11.91a10.3,10.3,0,0,1,2.67,2.8,17.89,17.89,0,0,1,3.15,8.34C112.4,102.09,113.11,107.89,113.11,107.89Z"/><path class="cls-4" d="M30.53,72.11a18.75,18.75,0,0,1-10.79-5.27l3.32-4.71a13.76,13.76,0,0,0,7.12,4.95,10.7,10.7,0,0,0,3.32.29A16.22,16.22,0,0,1,30.53,72.11Z"/><path class="cls-5" d="M84.62,72.53l-5,7.59s-4.41,7.12-12.68,6.42S51.18,78.29,45.25,81.7s-9.36,11.07-9.36,11.07l3.41-1s-6,4-7.07,6.47a1.14,1.14,0,0,0,.18,1.43l-3.62,1.06a15.64,15.64,0,0,1,1-1.56h0l0,0,0,0v0h0l0,0,.08-.11.08-.1.28-.36c.61-.75,1.08-1.19,1.11-1.23h0s.32-1.13.76-2.75c.34-1.25.75-2.79,1.13-4.33.86-3.54.77-4.8,3-6.53s2.76-3.15,4.07-4.18h0l.06,0c.76-.58,2.15-1.46,3.22-2.11h0c.83-.51,1.47-.88,1.47-.88A14.11,14.11,0,0,1,46,71.69a5.88,5.88,0,0,1-.63-1.5c-.21-.67-.35-1.28-.35-1.28-.37.25-.72.47-1.07.67h0C40.11,71.75,37.41,71,37.41,71a14.77,14.77,0,0,1-3,.91,17.5,17.5,0,0,0,1.84-5.18,7.54,7.54,0,0,0,2.07-1.17,4.11,4.11,0,0,0,3.56,1.18c2.52-.17,7.42-2.4,7.4-5.09A17.69,17.69,0,0,0,61.31,73.8C71.32,76.91,80.45,74.08,84.62,72.53Z"/><path class="cls-6" d="M48.77,124c-.28,2.86,1.42,7,1.94,12.35a104.81,104.81,0,0,1,0,13.6l-7.37-4.58c1.72-4.69-.51-11.76-.74-17-.28-6.46,3.65-6.73,3.65-6.73a10.9,10.9,0,0,1,3.37-12.1A22.83,22.83,0,0,1,53.41,114C51.31,122.8,48.77,124,48.77,124Z"/><path class="cls-7" d="M88.43,97.3a25.89,25.89,0,0,0-3.1,7.24c-.44-.82-.68-1.35-.68-1.35-8.19.4-13.77-4.91-15.09-5.76s-3.8-.06-6.27,5.48c-2.22,5-7.84,7-8.94,7.36-.47-.6-1.26-1.58-2.3-2.72,1.94-1.92,3.55-4.65,6.21-8.88a14.47,14.47,0,0,1,10-7c3.43-.71,5,1.4,12.81,4.81A12.15,12.15,0,0,0,88.43,97.3Z"/><path class="cls-8" d="M104.73,126.35l-7,15.47c-3.49-2.45-4.57-11.39-4.4-18.2a54.9,54.9,0,0,0-.78-11.32,15,15,0,0,1-5.14-4.54,62,62,0,0,1,6.69-10.85c-1.12,4.56,1.09,8.1,3.7,11.24a46.24,46.24,0,0,0,.58,13.08C99.25,125.17,102.54,126.15,104.73,126.35Z"/><path class="cls-9" d="M113.11,107.89l-1,2.31c-2-2.21-3.7-6.88-4.6-13.3-1.23-8.77-6.64-10-6.64-10,2.15-7-2.75-12.65-3.68-13.64l.34.12c6,2.28,8.55,11.91,8.55,11.91a10.3,10.3,0,0,1,2.67,2.8,17.89,17.89,0,0,1,3.15,8.34C112.4,102.09,113.11,107.89,113.11,107.89Z"/><path class="cls-10" d="M46.78,41.6c.53,3.13,5.76,3.24,5.76,3.24-3.25,1-6,.73-9.32.17s-5.63,5.44-4.72,5.83,1.78,1.95,1.78,1.95c-2.62-1.24-3,.05-2.18,2.84a24.41,24.41,0,0,1,.48,7.08c-.51-2.9-2.42-6.82-3.64-9.13a4.41,4.41,0,0,1,.43-1.26l.12-.2a2.85,2.85,0,0,1,.67-.76A2.07,2.07,0,0,1,37,51c0-.21,0-.42.07-.62,1-7.67,6-7.85,6-7.85,1-5.76,6.87-5.85,6.87-5.85s1.24.3,3.19.57C50.71,36.9,46.25,38.48,46.78,41.6Z"/><path class="cls-11" d="M92.61,39.94l-.12.6a10.59,10.59,0,0,0-8.37-3.07c-.6,2.73-5.31,3.21-5.31,3.21s3.66-2,3.18-4.33-6.47-4.45-6.47-4.45l0-.15a12,12,0,0,0,1.06-1.35c4.82-1.11,8.55,5,8.55,5,2.77,0,5,1.85,6.25,3.23a12.37,12.37,0,0,1,1.19,1.48Z"/><path class="cls-12" d="M30.8,104c-.11.27-3.69,8.88-6.29,11.91h0a15.55,15.55,0,0,1,1.39-2.83h0a10.57,10.57,0,0,1,1-1.39s0-.69,0-1.77c0-.48,0-1,.08-1.64A12.31,12.31,0,0,0,30.8,104Z"/><path class="cls-13" d="M96.05,56a26.9,26.9,0,0,0,2.67,4.47c-3.65.85-7.67-.78-10-2h0l-.09-.05-.06,0a.7.7,0,0,1-.14-.08,16.42,16.42,0,0,1-1.58-.93,11.72,11.72,0,0,1,.54,2h0c0,.13,0,.27.07.4-4.69-6.53-6.78-15.09-6.88-15.5.15.41,3.15,8.85,10.4,11.13A12.83,12.83,0,0,0,96.05,56Z"/><path class="cls-13" d="M106.36,53A10.07,10.07,0,0,1,101,59.54a24.06,24.06,0,0,1-2.52-4.11A12.71,12.71,0,0,0,105,50.12Z"/><path class="cls-14" d="M90,72.59h0s-6.71,3.76-7.79,5-2,3.05-7.17,4.63a35.69,35.69,0,0,1-4.36,1C66.15,84,60.56,84,56,81.44a13.07,13.07,0,0,0-5.86-4.86,46.17,46.17,0,0,0,6.07.94c.19,0,.38,0,.57,0a7.79,7.79,0,0,0,.85,0,3,3,0,0,1,1-.86,15.93,15.93,0,0,1,3.8-.22h.73c1.07,0,2.26,0,3.5-.16s2.17-.22,3.14-.35l.74-.1c1.72-.25,3-.49,3.33-.51a2.63,2.63,0,0,1,1.81.68l.14.13.48-.17c.58-.21,1.64-.6,2.91-1.1l.55-.22,1.14-.46.41-.17h0c1-.4,2-.84,3-1.3l.31-.15a29.08,29.08,0,0,0,4.13-2.3c0,.23,0,.45,0,.65a3.8,3.8,0,0,1-.44,2.26l0,.06.37-.2h0A8.09,8.09,0,0,1,90,72.59Z"/><path class="cls-15" d="M88.79,70.91c-1.65,1-7.62,4.53-12.41,5.74l-.08,2.11c0-.23-.06-2.63-5-1.85a76.09,76.09,0,0,1-10.22.86s1.39,6.11,9.54,5.46C66.15,84,60.56,84,56,81.44a13.07,13.07,0,0,0-5.86-4.86,46.17,46.17,0,0,0,6.07.94c.19,0,.38,0,.57,0a7.79,7.79,0,0,0,.85,0,3,3,0,0,1,1-.86,15.93,15.93,0,0,1,3.8-.22h.73c1.07,0,2.26,0,3.5-.16s2.17-.22,3.14-.35l.74-.1c1.72-.25,3-.49,3.33-.51a2.63,2.63,0,0,1,1.81.68l.14.13.48-.17c.58-.21,1.64-.6,2.91-1.1l.55-.22,1.14-.46.41-.17h0c1-.4,2-.84,3-1.3l.31-.15a29.08,29.08,0,0,0,4.13-2.3C88.77,70.49,88.79,70.71,88.79,70.91Z"/><path class="cls-16" d="M63.19,76.44V83l-.74-6.55Z"/><path class="cls-16" d="M70.57,75.83l-.29,6.69-.45-6.59Z"/><path class="cls-16" d="M56.76,77.55l-.38,2.75-.19-2.78C56.38,77.54,56.57,77.54,56.76,77.55Z"/><path class="cls-16" d="M76,80.86c0-1.9-.2-3.87-.31-4.86l.14.13.48-.17A19.68,19.68,0,0,1,76,80.86Z"/><path class="cls-16" d="M79.79,74.64l-.28,4.09-.27-3.87Z"/><path class="cls-16" d="M81.34,74l-.21,3-.2-2.86Z"/><path class="cls-16" d="M84.62,72.56l-.16,2.35-.15-2.2Z"/><path class="cls-17" d="M60.88,83.79c-3.4,1-7.42-6.92-14-6.31a22.13,22.13,0,0,0-6.42,1.9l.06,0c.76-.58,2.15-1.46,3.22-2.11h0a12.83,12.83,0,0,1,5.75-.7C54.24,76.76,57.54,83.39,60.88,83.79Z"/><path class="cls-17" d="M97,73.2C87.67,72,78.89,81.3,78.89,81.3c3.83-4.94,7.19-7.15,9.46-8.13l.32-.14h0a11.84,11.84,0,0,1,1.54-.49h0a5,5,0,0,1,1.06-.15h0A13.65,13.65,0,0,1,97,73.2Z"/><polygon class="cls-17" points="29.77 99.14 29.77 99.14 29.77 99.14 29.77 99.14"/><path class="cls-17" d="M39.29,91.75a24.57,24.57,0,0,0-9.48,7.34,14,14,0,0,1,1.64-1.91s.32-1.13.76-2.75A36.52,36.52,0,0,1,39.29,91.75Z"/><path class="cls-17" d="M28.86,108a18.25,18.25,0,0,1-2.95,5.16,10.57,10.57,0,0,1,1-1.39s0-.69,0-1.77A6.55,6.55,0,0,0,28.86,108Z"/><path class="cls-18" d="M93.65,38.88c-.36.33-3.34,3.33-2.43,12.34,0,0-1.9-6.75.11-12.64a12.37,12.37,0,0,1,1.19,1.48A7,7,0,0,1,93.65,38.88Z"/><path class="cls-17" d="M93.66,38.87h0Z"/><path class="cls-17" d="M34.82,54.22a7.22,7.22,0,0,0-.88-1A3.26,3.26,0,0,1,34.82,54.22Z"/><path class="cls-17" d="M38.58,62.71c-1.44-4.64-2.77-7.13-3.73-8.45h0a5,5,0,0,1,.52-1.94A35.08,35.08,0,0,1,38.58,62.71Z"/><path class="cls-17" d="M40.24,52.32a4.17,4.17,0,0,0-4.08-1A2.07,2.07,0,0,1,37,51c0-.21,0-.42.07-.62A5,5,0,0,1,40.24,52.32Z"/><path class="cls-17" d="M49.38,65.77a39.76,39.76,0,0,1-4,4.42c-.21-.67-.35-1.28-.35-1.28C44.64,69.16,49.38,65.77,49.38,65.77Z"/><path class="cls-17" d="M86.9,57.36a11.72,11.72,0,0,1,.54,2,14.91,14.91,0,0,1-2.85-5.19,10.28,10.28,0,0,0,3.89,4.17A16.42,16.42,0,0,1,86.9,57.36Z"/><path class="cls-19" d="M54,69.29l1.49,2.23c-2.4,1.9-6.65,4.4-9,4.72s-3.8-.06-4.05-1.46c-.2-1.07,1.7-2.9,2.62-3.72.28-.26.48-.41.48-.41l.48,1s-2.77,2.86-.91,3.2l.19,0c2.24.18,8.61-5.82,8.61-5.82"/><path class="cls-20" d="M45.08,74.89h0s-1.71.14-1.64-1.13A6.51,6.51,0,0,1,45,71.06c.28-.26.48-.41.48-.41l.48,1S43.22,74.55,45.08,74.89Z"/><path class="cls-19" d="M92.63,67a7,7,0,0,1-2.41,2c-3,1.7-9.14.3-9.14.3L80.38,66a16.75,16.75,0,0,0,7.87,1.84,7.41,7.41,0,0,0,2.1-.41c1.35-.5,1.6-1.33,1.22-1.87-.53-.76-3.91-.16-3.91-.16l.08-2.74a15.19,15.19,0,0,1,3,.48,3.4,3.4,0,0,1,1.89,1.08A2.32,2.32,0,0,1,92.63,67Z"/><path class="cls-20" d="M92.63,67a3.32,3.32,0,0,1-2.28.43c2.57-.77,1-3.35.35-4.29a3.4,3.4,0,0,1,1.89,1.08A2.32,2.32,0,0,1,92.63,67Z"/><path class="cls-21" d="M48.07,34.05S43.41,36.14,44,46.54,53.1,62.35,53.1,62.35l.15,2.2S46.63,62.48,42.89,54s-.82-18.91,5-21Z"/><path class="cls-22" d="M76.3,26.94s6,2.28,8.61,10.48S82.85,51.31,78.2,55l1.51,3.53s8.19-5,9-13.73S83.47,27.88,77.39,24.5Z"/><path class="cls-23" d="M81.33,70.7c0,.47-4.16,1.19-5.76,1.48a176.23,176.23,0,0,1-19.79,2.48.53.53,0,0,1-.54-.37,91.43,91.43,0,0,1-3.51-16.13c-.21-1.62-.38-3.26-.51-4.91A1.09,1.09,0,0,1,52,52.12a95.3,95.3,0,0,1,26-3.86,1.1,1.1,0,0,1,1.06.85C80.46,55.41,81.56,67.21,81.33,70.7Z"/><path class="cls-24" d="M81.08,69.29c0,.48-4.16,1.19-5.76,1.49a179.07,179.07,0,0,1-19.8,2.47.53.53,0,0,1-.54-.37,93.35,93.35,0,0,1-3.51-16.12c-.2-1.63-.37-3.27-.5-4.91a1.08,1.08,0,0,1,.78-1.13,95.76,95.76,0,0,1,26-3.87,1.1,1.1,0,0,1,1.06.86C80.21,54,81.31,65.8,81.08,69.29Z"/><path class="cls-25" d="M75.32,70.78a176.57,176.57,0,0,1-19.53,2.45.86.86,0,0,1-.89-.61,92.16,92.16,0,0,1-3.43-15.86C54.9,62.69,62.45,72.13,75.32,70.78Z"/><path class="cls-26" d="M54.66,55.13s1.42,9.23,2.89,14.5l1.87-.28s-1.57-9.22-2-14.88Z"/><path class="cls-27" d="M62.29,53.5s1.32,10,2.6,14.84l2.19-.3s-1.59-9.38-2-15Z"/><path class="cls-28" d="M59,55.47s.39,3.45.87,5.79L61.7,61l-.87-5.78A11.7,11.7,0,0,0,59,55.47Z"/><path class="cls-29" d="M74.87,54.78a1.66,1.66,0,1,1-1.77-1.54A1.67,1.67,0,0,1,74.87,54.78Z"/><path class="cls-30" d="M76,61.82a1.65,1.65,0,1,1-1.76-1.54A1.66,1.66,0,0,1,76,61.82Z"/><path class="cls-31" d="M79.33,41.36a3.39,3.39,0,1,1-3.62-3.15A3.39,3.39,0,0,1,79.33,41.36Z"/><path class="cls-32" d="M50.41,49.78c1.55-.36,5.31-1.12,9.42-2a1,1,0,0,0,.8-1.33l-.79-2.59a.8.8,0,0,0-.91-.63c-1.85.31-6.67.63-9.64,1.62-.37.12-.77.21-.55,1.42a22,22,0,0,0,.73,3A.81.81,0,0,0,50.41,49.78Z"/><path class="cls-33" d="M48.07,34.05a16.05,16.05,0,0,0,1.61,3.72s16.16,7.43,28.74-7.34a20,20,0,0,0-1.91-4.92S69,38,48.07,34.05Z"/><path class="cls-34" d="M41.93,19.17S38.74,21,38.29,21.32c-1,.74,2.85,11.51,4.26,11.56a19.37,19.37,0,0,0,3.72-1Z"/><path class="cls-35" d="M40.89,22.4a.63.63,0,0,1-.59.67.62.62,0,0,1-.67-.58.63.63,0,0,1,.59-.67A.62.62,0,0,1,40.89,22.4Z"/><path class="cls-36" d="M74.39,8.83s3.63-.47,4.2-.46c1.24,0,4.6,10.93,3.5,11.82a19.7,19.7,0,0,1-3.59,1.42Z"/><path class="cls-35" d="M77.16,10.79A.62.62,0,0,0,78,11a.63.63,0,0,0,.19-.87.64.64,0,0,0-.88-.19A.63.63,0,0,0,77.16,10.79Z"/><path class="cls-37" d="M50.22,4.12l-.39-1.3A14.7,14.7,0,0,1,58.8,0l.75,1.69Z"/><path class="cls-38" d="M78.91,23.6,71,26.15,47.2,33.83c-9.21-10-7-26.23,5.15-31.18q.84-.35,1.68-.6h0C67.42-2.17,80,8.36,78.91,23.6Z"/><path class="cls-39" d="M71,26.15,47.2,33.83c-9.21-10-7-26.23,5.15-31.18q.84-.35,1.68-.6c-8.14,3.38-8.87,8.84-1.59,6.6s12.5-.82,12.5-.82Z"/><path class="cls-40" d="M78.91,23.6A19.52,19.52,0,0,1,64.6,36.28C53.08,39,47.2,33.83,47.2,33.83Z"/><path class="cls-41" d="M78.91,23.6a24.25,24.25,0,0,1-6.87,7C66.93,34.09,58.83,37,47.2,33.83c-5.06-9.51-2.13-19.12,5-23.7a16.1,16.1,0,0,1,1.68-.94C62.72,4.88,76,8.31,78.91,23.6Z"/><path class="cls-42" d="M72,30.6C66.93,34.09,58.83,37,47.2,33.83c-5.06-9.51-2.13-19.12,5-23.7-.92,2.24-2.12,6.75-1.12,13.63C52.59,34.09,59.74,37.18,72,30.6Z"/><path class="cls-43" d="M58.8,9.17s9.85-1.68,15.35,7.38a1.61,1.61,0,0,1-.44,2.15h0a1.61,1.61,0,0,1-2.33-.52A18.63,18.63,0,0,0,58.8,9.17Z"/><path class="cls-44" d="M75.78,20.76a1.26,1.26,0,1,1-1.72-.46A1.26,1.26,0,0,1,75.78,20.76Z"/><path class="cls-45" d="M96.15,94.43a18.81,18.81,0,0,1-2.06,2.48h0a62,62,0,0,0-6.69,10.85,28.06,28.06,0,0,1-2.07-3.22h0a25.89,25.89,0,0,1,3.1-7.24A29.09,29.09,0,0,0,96.15,94.43Z"/><path class="cls-46" d="M108.7,88.1a23.21,23.21,0,0,0-14.61,8.81,13.51,13.51,0,0,0,1.76-2.15,29.86,29.86,0,0,1-7.42,2.54,29.67,29.67,0,0,1,3-4c5.43-6.22,14.63-8,14.63-8A10.3,10.3,0,0,1,108.7,88.1Z"/><path class="cls-45" d="M54.35,110.27l-.19.06c-.24,1.34-.49,2.55-.75,3.64a22.83,22.83,0,0,0-3.81-4.45,7.27,7.27,0,0,1,.67-.5,12,12,0,0,0,1.78-1.47C53.09,108.69,53.88,109.67,54.35,110.27Z"/><path class="cls-47" d="M52.05,107.55A12,12,0,0,1,50.27,109a7.27,7.27,0,0,0-.67.5,33,33,0,0,0-6.23-4.46A21.42,21.42,0,0,0,28,102.6a12.66,12.66,0,0,1,.83-1.9,15.64,15.64,0,0,1,1-1.56h0l0,0,0,0v0h0l0,0,.08-.11.08-.1.28-.36c.55-.08,1.19-.16,1.9-.2a21.14,21.14,0,0,1,10.15,1.7A32.48,32.48,0,0,1,52.05,107.55Z"/><path class="cls-45" d="M101,59.54a13.23,13.23,0,0,1-1.31.58,9,9,0,0,1-1,.3A26.9,26.9,0,0,1,96.05,56a10.39,10.39,0,0,0,2.47-.52A24.06,24.06,0,0,0,101,59.54Z"/><path class="cls-48" d="M98.52,55.43a10.39,10.39,0,0,1-2.47.52,29.44,29.44,0,0,1-2.18-17.26h0a9.62,9.62,0,0,1,1.78-1.11A31.44,31.44,0,0,0,97.33,52.7C97.72,53.7,98.12,54.61,98.52,55.43Z"/><path class="cls-45" d="M36.23,66.74a17.5,17.5,0,0,1-1.84,5.18,13.77,13.77,0,0,1-3.86.19,16.22,16.22,0,0,0,3-4.74A9.64,9.64,0,0,0,36.23,66.74Z"/><path class="cls-49" d="M36.23,66.74a9.64,9.64,0,0,1-2.73.63c2.32-5.64,1.26-11.61.7-13.93a3,3,0,0,1,.62.78h0a.1.1,0,0,1,0,.05,0,0,0,0,1,0,0h0a5,5,0,0,1,.52-1.94l.12-.2C37,58.54,36.91,63.33,36.23,66.74Z"/><path class="cls-50" d="M50.52,49.14c1.55-.36,5.49-1.26,9.42-2a.8.8,0,0,0,.64-.95l-.62-3a.81.81,0,0,0-.92-.63,76.55,76.55,0,0,0-9.65,2.15.8.8,0,0,0-.54.89,22,22,0,0,0,.73,3A.81.81,0,0,0,50.52,49.14Z"/><path class="cls-51" d="M25.36,65.82a12.4,12.4,0,0,1-4.5.87,12,12,0,0,1-5.32-1.15,1.42,1.42,0,0,1-.62.56h0a6.56,6.56,0,0,1-4.05.4c-4-.52-5.4-2.64-5.34-4.22a1.29,1.29,0,0,1,.67-1.05h0a8.89,8.89,0,0,1,3.61-.82c1.1-.07,1.4-.41.87-1.16a.87.87,0,0,0-.09-.11c-.67-.65-2.87-.68-4.12-1.34a4.53,4.53,0,0,1-2-4.13c0-.86.8-1.35,1.83-1.51a6.56,6.56,0,0,1,3.48.51c2.12,1,2.88.6,3-.52.06-.79-1.57-1.86-3.07-2.88A20,20,0,0,1,8,48c-1.51-1.32-.59-4.07,2.06-4.57a2,2,0,0,1,.78,0h0c2.08.4,3,4,4.2,3.46s.35-1.77-1.52-3.69c-.24-.26-.5-.53-.74-.82-1.63-1.94-3.05-4.57-1.22-5.93a1.88,1.88,0,0,1,1.52-.29c2.32.42,5.62,3.91,7.56,8.21a18.75,18.75,0,0,0,1.67,3.13c.73,1,1.06.9,1.2.74a.41.41,0,0,0,.07-.12c.5-.74.81-5.51,1.08-8.53,0-.49.1-1,.17-1.42.37-2.33,1.16-4.09,2.59-4.46a3.11,3.11,0,0,1,.71-.1c1.24,0,1.9,1,2.2,3.38a10,10,0,0,1,0,1.72c-.12,2-.81,3.87-.77,6.23,0,3,1.84,6.2,2.42,10.11S30.75,63.72,25.36,65.82Z"/><path class="cls-52" d="M16.06,40.69c-.2,1.7-2,1.83-3.26,1.73-.18-.22-.35-.43-.52-.66-1.38-1.83-2.33-4-.7-5.27a1.88,1.88,0,0,1,1.52-.29c.5.61,1.52,1.39,2.22,2.32A3,3,0,0,1,16.06,40.69Z"/><path class="cls-53" d="M12.86,47.08a2.81,2.81,0,0,1-3.2,2.18c-.51-.36-1-.71-1.42-1L8,48c-1.51-1.32-.59-4.07,2.06-4.57a2,2,0,0,1,.78,0h0a12.19,12.19,0,0,1,1.54,2h0A2.3,2.3,0,0,1,12.86,47.08Z"/><path class="cls-54" d="M11.47,59.18a2.55,2.55,0,0,1-.88,0l-1.47-.36a12.14,12.14,0,0,1-2.65-1,4.53,4.53,0,0,1-2-4.13c0-.86.8-1.35,1.83-1.51a11.26,11.26,0,0,0,3,2c.29.11.59.23.89.37,1.22.55,2.42,1.33,2.59,2.08C12.93,57.5,12.87,58.93,11.47,59.18Z"/><path class="cls-55" d="M14.92,66.1h0a6,6,0,0,1-3.49.46l-.56-.06c-4-.52-5.4-2.64-5.34-4.22a1.29,1.29,0,0,1,.67-1.05h0c.09,0,1.69-.63,5.47,1l.34.14C15.63,63.87,16.51,65,14.92,66.1Z"/><path class="cls-56" d="M21,58.61c-.1-.2-3.11-6,1.34-11.07.73,1,1.06.9,1.2.74l.09.2S19.45,54.45,21,58.61Z"/><path class="cls-57" d="M25.36,65.82a12.4,12.4,0,0,1-4.5.87c9.69-2.21,8.47-11.28,7.31-14.1a17.45,17.45,0,0,1,.1-12.49c1.27-3.46.42-5.57-.12-6.45,1.24,0,1.9,1,2.2,3.38a10,10,0,0,1,0,1.72c-.12,2-.81,3.87-.77,6.23,0,3,1.84,6.2,2.42,10.11S30.75,63.72,25.36,65.82Z"/><path class="cls-58" d="M30.4,38.75a5.6,5.6,0,0,1-5.55-.54c.37-2.33,1.16-4.09,2.59-4.46,1.71-.43,2.56.46,2.91,3.28A10,10,0,0,1,30.4,38.75Z"/><path class="cls-59" d="M16.06,40.69c-.2,1.7-3.39,2.53-3.78,1.07.32-3.13,2.09-3.36,3-3.24A3,3,0,0,1,16.06,40.69Z"/><path class="cls-60" d="M12.86,47.08c-.07,2.52-3.68,2.85-4.62,1.15a2.62,2.62,0,0,1,.41-2.61c1.57-2,3.67-.25,3.75-.18h0A3.08,3.08,0,0,1,12.86,47.08Z"/><path class="cls-61" d="M11.47,59.18a2.55,2.55,0,0,1-.88,0l-1.47-.36a4.24,4.24,0,0,1,1-4.28c1.22.55,2.42,1.33,2.59,2.08C12.93,57.5,12.87,58.93,11.47,59.18Z"/><path class="cls-62" d="M14.92,66.1h0a6,6,0,0,1-3.49.46A3.37,3.37,0,0,1,11,64a3,3,0,0,1,1-1.65C15.63,63.87,16.51,65,14.92,66.1Z"/><path class="cls-63" d="M104.61,54.9a12.58,12.58,0,0,0,4.58,0,12,12,0,0,0,5-2.12,1.48,1.48,0,0,0,.71.43h0a6.56,6.56,0,0,0,4-.37c3.82-1.25,4.82-3.59,4.47-5.14a1.29,1.29,0,0,0-.86-.9h0a8.72,8.72,0,0,0-3.7-.14c-1.1.13-1.45-.14-1.07-1a.75.75,0,0,1,.07-.12c.53-.76,2.69-1.2,3.79-2.09a4.52,4.52,0,0,0,1.22-4.43c-.18-.84-1-1.18-2.07-1.14a6.57,6.57,0,0,0-3.33,1.15c-1.9,1.34-2.72,1.12-3,0-.2-.76,1.2-2.12,2.47-3.41a16.57,16.57,0,0,0,1.39-1.5c1.24-1.58-.17-4.11-2.87-4.1a2.07,2.07,0,0,0-.77.14h0c-2,.78-2.17,4.44-3.48,4.18-1.47-.31-.68-1.67.8-3.91.2-.3.39-.61.58-1,1.24-2.2,2.15-5,.1-6a1.9,1.9,0,0,0-1.55,0c-2.2.85-4.79,4.89-5.9,9.48a19.37,19.37,0,0,1-1.06,3.38c-.52,1.15-.88,1.08-1,1a.29.29,0,0,1-.09-.1c-.63-.64-1.82-5.26-2.65-8.18-.13-.48-.28-.93-.43-1.36-.8-2.23-1.9-3.82-3.37-3.91a4.11,4.11,0,0,0-.72,0c-1.22.21-1.69,1.32-1.53,3.74a8.91,8.91,0,0,0,.27,1.69c.5,2,1.51,3.66,1.92,6,.51,3-.67,6.43-.51,10.38S98.93,53.83,104.61,54.9Z"/><path class="cls-64" d="M109.08,28.48c.51,1.63,2.35,1.41,3.52,1.08.14-.24.27-.48.39-.74,1-2.06,1.53-4.41-.29-5.3a1.9,1.9,0,0,0-1.55,0c-.37.7-1.23,1.65-1.75,2.69A3.06,3.06,0,0,0,109.08,28.48Z"/><path class="cls-65" d="M113.41,34.15A2.8,2.8,0,0,0,117,35.7c.44-.44.87-.88,1.21-1.27l.18-.23c1.24-1.58-.17-4.11-2.87-4.1a2.07,2.07,0,0,0-.77.14h0a12.54,12.54,0,0,0-1.15,2.22h0A2.26,2.26,0,0,0,113.41,34.15Z"/><path class="cls-66" d="M117,45.79a2.85,2.85,0,0,0,.85-.21l1.38-.63a11.9,11.9,0,0,0,2.41-1.46,4.52,4.52,0,0,0,1.22-4.43c-.18-.84-1-1.18-2.07-1.14a11.7,11.7,0,0,1-2.53,2.48c-.27.16-.54.34-.81.53-1.1.77-2.13,1.76-2.16,2.53C115.27,44.41,115.6,45.8,117,45.79Z"/><path class="cls-67" d="M114.92,53.23h0a5.94,5.94,0,0,0,3.51-.2c.17-.05.36-.1.54-.17,3.82-1.25,4.82-3.59,4.47-5.14a1.29,1.29,0,0,0-.86-.9h0c-.1,0-1.77-.31-5.2,2l-.3.2C113.81,51.17,113.14,52.4,114.92,53.23Z"/><path class="cls-68" d="M107.56,47c.07-.21,1.94-6.49-3.37-10.63-.52,1.15-.88,1.08-1,1l-.05.21S108.31,42.62,107.56,47Z"/><path class="cls-69" d="M104.61,54.9a12.58,12.58,0,0,0,4.58,0c-9.93-.37-10.41-9.51-9.8-12.5A17.52,17.52,0,0,0,97,30.16c-1.89-3.16-1.45-5.39-1.08-6.36-1.22.21-1.69,1.32-1.53,3.74a8.91,8.91,0,0,0,.27,1.69c.5,2,1.51,3.66,1.92,6,.51,3-.67,6.43-.51,10.38S98.93,53.83,104.61,54.9Z"/><path class="cls-70" d="M94.63,29.23A5.6,5.6,0,0,0,100,27.68c-.8-2.23-1.9-3.82-3.37-3.91-1.76-.1-2.43.93-2.25,3.77A8.91,8.91,0,0,0,94.63,29.23Z"/><path class="cls-71" d="M109.08,28.48c.51,1.63,3.8,1.85,3.91.34-.89-3-2.68-2.91-3.59-2.62A3.06,3.06,0,0,0,109.08,28.48Z"/><path class="cls-72" d="M113.41,34.15c.54,2.47,4.15,2.13,4.75.28a2.6,2.6,0,0,0-.88-2.49c-1.91-1.63-3.65.44-3.73.52h0A3,3,0,0,0,113.41,34.15Z"/><path class="cls-73" d="M117,45.79a2.85,2.85,0,0,0,.85-.21l1.38-.63a4.25,4.25,0,0,0-1.78-4c-1.1.77-2.13,1.76-2.16,2.53C115.27,44.41,115.6,45.8,117,45.79Z"/><path class="cls-74" d="M114.92,53.23h0a5.94,5.94,0,0,0,3.51-.2,3.31,3.31,0,0,0-.07-2.63A2.91,2.91,0,0,0,117.08,49C113.81,51.17,113.14,52.4,114.92,53.23Z"/><path class="cls-17" d="M96.37,142.36s-1.38-4.54-1.06-6.94,14-35.73,31.86-35.68Z"/><path class="cls-75" d="M100.6,153.88s-4-3.19-4.37-13.69,21-47,34-39.4Z"/><path class="cls-76" d="M133.6,113.88c0,.43,0,.86,0,1.31a64.74,64.74,0,0,1-.66,7c-.06.42-.12.84-.19,1.26-.36,2.18-.83,4.46-1.44,6.82-.1.4-.21.81-.32,1.22a83.87,83.87,0,0,1-2.67,8.09c-.15.39-.3.78-.46,1.18-.94,2.33-2,4.7-3.24,7.09-.19.38-.39.76-.59,1.14-1.08,2-2.28,4.1-3.59,6.15l-.33.51h0q-.4.24-.81.45c-9.47,5-20.88-1.48-20.92-6.24v-.16a11.3,11.3,0,0,1,.17-1.27c.27-1.51.85-3.89,1.67-6.74.11-.4.23-.81.35-1.22.66-2.26,1.46-4.77,2.34-7.36l.42-1.19c.93-2.66,2-5.38,3-8,.16-.39.33-.78.5-1.17,1-2.26,2-4.41,3-6.33.2-.38.41-.76.62-1.13s.51-.86.76-1.27a54.41,54.41,0,0,1,3.29-4.74c.29-.36.57-.72.86-1.06a31.16,31.16,0,0,1,6.51-6.09c.49-.32,1-.62,1.45-.87,2.59-1.41,5-1.78,6.87-1,.92.37,1.75,1.72,2.36,3.84.13.45.24.92.35,1.43A38.62,38.62,0,0,1,133.6,113.88Z"/><path class="cls-77" d="M132.93,105.59l-11-3.38c.49-.32,1-.62,1.45-.87l9.23,2.82C132.71,104.61,132.82,105.08,132.93,105.59Z"/><path class="cls-77" d="M133.6,113.88c0,.43,0,.86,0,1.31l-19-5.83c.29-.36.57-.72.86-1.06Z"/><path class="cls-77" d="M132.91,122.24c-.06.42-.12.84-.19,1.26l-22.86-7c.2-.38.41-.76.62-1.13Z"/><path class="cls-77" d="M131.28,130.32c-.1.4-.21.81-.32,1.22L106.34,124c.16-.39.33-.78.5-1.17Z"/><path class="cls-77" d="M128.29,139.63c-.15.39-.3.78-.46,1.18l-25-7.64.42-1.19Z"/><path class="cls-77" d="M124.59,147.9c-.19.38-.39.76-.59,1.14l-23.81-7.29c.11-.4.23-.81.35-1.22Z"/><path class="cls-77" d="M120.41,155.19l-.33.51h0q-.4.24-.81.45l-20.92-6.4a11.3,11.3,0,0,1,.17-1.27Z"/><path class="cls-17" d="M53,151.17s-1.79-4.4-3.54-6.07-33.34-19-47.21-7.75Z"/><path class="cls-78" d="M57,162.78s1.1-5-5.2-13.39S5.85,126,.53,140.11Z"/><path class="cls-79" d="M6.14,152.39c.27.33.56.67.85,1a64.46,64.46,0,0,0,4.94,5.08l1,.86c1.64,1.47,3.44,2.95,5.39,4.4l1,.75c2.21,1.58,4.59,3.14,7.16,4.62l1.1.62q3.3,1.84,7,3.48l1.18.52c2.13.91,4.35,1.76,6.66,2.53l.57.19h0c.31,0,.61-.09.92-.15,10.5-2.06,15.3-14.27,12.35-18l-.1-.12a10.57,10.57,0,0,0-.93-.89c-1.16-1-3.1-2.48-5.53-4.2l-1-.72c-1.94-1.34-4.13-2.8-6.45-4.25-.35-.23-.71-.45-1.07-.67-2.4-1.49-4.9-2.95-7.38-4.29-.37-.21-.75-.41-1.12-.6-2.18-1.15-4.32-2.19-6.32-3l-1.2-.49-1.39-.51a53.53,53.53,0,0,0-5.54-1.62c-.45-.11-.89-.2-1.33-.29A31.23,31.23,0,0,0,7.92,136c-.59.06-1.15.13-1.68.23-2.9.54-5,1.75-6,3.53-.49.87-.29,2.44.57,4.47.18.43.39.87.63,1.33A39.08,39.08,0,0,0,6.14,152.39Z"/><path class="cls-77" d="M1.46,145.52,7.92,136c-.59.06-1.15.13-1.68.23l-5.41,8C1,144.62,1.22,145.06,1.46,145.52Z"/><path class="cls-77" d="M6.14,152.39c.27.33.56.67.85,1L18.14,136.9c-.45-.11-.89-.2-1.33-.29Z"/><path class="cls-77" d="M11.93,158.47l1,.86,13.39-19.81-1.2-.49Z"/><path class="cls-77" d="M18.27,163.73l1,.75,14.42-21.33c-.37-.21-.75-.41-1.12-.6Z"/><path class="cls-77" d="M26.45,169.1l1.1.62,14.61-21.61c-.35-.23-.71-.45-1.07-.67Z"/><path class="cls-77" d="M34.52,173.2l1.18.52,13.95-20.64-1-.72Z"/><path class="cls-77" d="M42.36,176.25l.57.19h0c.31,0,.61-.09.92-.15l12.25-18.12a10.57,10.57,0,0,0-.93-.89Z"/><path class="cls-80" d="M132.93,105.59c-.11-.51-.22-1-.35-1.43-.61-2.12-1.44-3.47-2.36-3.84a5.74,5.74,0,0,0-2.12-.38,8,8,0,0,0-1-.15l0-.05h-.63a9.31,9.31,0,0,0-2.53.33c-4,.85-7.7,3.26-11.07,6.44-.24-2-.7-6.1-1.09-10.08a17.89,17.89,0,0,0-3.15-8.34A10.3,10.3,0,0,0,106,85.3s-2.55-9.63-8.55-11.91l-.34-.12L97,73.2h0a13.65,13.65,0,0,0-5.63-.83h0a5,5,0,0,0-1.06.15h0l-.26.06a8.09,8.09,0,0,0-1.28.43h0l-.32.14,0,0,0,0h0l0,0h0l0-.06v0l0-.07v0l0-.09h0a3.63,3.63,0,0,0,.14-.51v0a.59.59,0,0,0,0-.13V72s0-.09,0-.13v-.07s0-.1,0-.15v-.07a.86.86,0,0,1,0-.16v-.29c0-.17,0-.34,0-.53l0-.35c0-.22,0-.45-.09-.7A5.78,5.78,0,0,0,90.22,69a7,7,0,0,0,2.41-2,2.32,2.32,0,0,0,0-2.78,3.4,3.4,0,0,0-1.89-1.08,14.88,14.88,0,0,0-2.93-.48,21.32,21.32,0,0,0-.26-3c0-.13,0-.27-.07-.4h0a11.72,11.72,0,0,0-.54-2,16.42,16.42,0,0,0,1.58.93.7.7,0,0,0,.14.08l.06,0,.09.05h0c2.28,1.19,6.3,2.82,10,2a9,9,0,0,0,1-.3,13.23,13.23,0,0,0,1.31-.58A10.36,10.36,0,0,0,105.6,55a12.74,12.74,0,0,0,3.59-.12,12,12,0,0,0,5-2.12,1.48,1.48,0,0,0,.71.43h0l.13,0h0l.1,0h0l.1,0h.06l.11,0h.07l.11,0h.73l.19,0h0l.56-.07h0l.29-.06h.07l.25-.06.09,0,.24-.06.12,0,.14,0,.13,0h0c.12,0,.25-.07.37-.12,3.82-1.25,4.82-3.59,4.47-5.14a1.29,1.29,0,0,0-.86-.9h0a8.72,8.72,0,0,0-3.7-.14c-1.1.13-1.45-.14-1.07-1a.75.75,0,0,1,.07-.12l1.38-.63a11.9,11.9,0,0,0,2.41-1.46,4.52,4.52,0,0,0,1.22-4.43c-.18-.84-1-1.18-2.07-1.14a6.57,6.57,0,0,0-3.33,1.15c-1.9,1.34-2.72,1.12-3,0-.2-.76,1.2-2.12,2.47-3.41l.09-.08a2.14,2.14,0,0,0,1.12-1.19v0l.17-.21c1.24-1.58-.17-4.11-2.87-4.1a2.07,2.07,0,0,0-.77.14h0c-2,.78-2.17,4.44-3.48,4.18-1.47-.31-.68-1.67.8-3.91.2-.3.39-.61.58-1a.41.41,0,0,0,.05-.09.89.89,0,0,0,.34-.65h0c0-.06,0-.11.08-.16l0,0,.07-.15,0-.05a1.11,1.11,0,0,0,.07-.16l0,0c.07-.16.13-.32.19-.49l0-.07a.56.56,0,0,0,0-.12l0-.1a.42.42,0,0,0,0-.1l0-.11,0-.1,0-.1,0-.11,0-.1a.43.43,0,0,1,0-.11.3.3,0,0,0,0-.1.36.36,0,0,0,0-.1.43.43,0,0,0,0-.11s0-.06,0-.09,0-.12,0-.18a.31.31,0,0,0,0-.1s0-.07,0-.11a.28.28,0,0,1,0-.09v-.38a.28.28,0,0,1,0-.09s0-.06,0-.09,0-.06,0-.09,0-.06,0-.09,0-.06,0-.09a.19.19,0,0,1,0-.08l0-.09a.31.31,0,0,0,0-.08l0-.1a.61.61,0,0,0,0-.12.3.3,0,0,0,0-.08.16.16,0,0,0,0-.07l0-.08,0-.07,0-.07,0-.07-.06-.06L113.3,24a.23.23,0,0,0-.07-.07l-.06-.05a.27.27,0,0,0-.08-.07l-.06,0-.1-.07-.06,0-.17-.09a1.9,1.9,0,0,0-1.55,0c-2.2.85-4.79,4.89-5.9,9.48a19.37,19.37,0,0,1-1.06,3.38c-.52,1.15-.88,1.08-1,1a.29.29,0,0,1-.09-.1c-.63-.64-1.82-5.26-2.65-8.18-.13-.48-.28-.93-.43-1.36-.8-2.23-1.9-3.82-3.37-3.91h-.73l-.18,0h0l-.17.06,0,0L95.3,24h0l-.14.1,0,0a.74.74,0,0,0-.13.12l0,0a1.47,1.47,0,0,0-.1.13l0,0-.09.15,0,0a.89.89,0,0,0-.08.17l0,.06a1.07,1.07,0,0,0-.07.19l0,0c0,.07,0,.13-.05.2s0,0,0,.06,0,.16,0,.24v.07l0,.27V26a2.28,2.28,0,0,0,0,.27v0c0,.1,0,.21,0,.32v.49c0,.13,0,.26,0,.4a8.91,8.91,0,0,0,.27,1.69c.5,2,1.51,3.66,1.92,6a10.16,10.16,0,0,1,.12,1.93c-.31.12-.65.26-1,.43a9.62,9.62,0,0,0-1.78,1.11h0l-.19.16h0l0,0h0l-.29.26-.09.09-.18.17-.14.15-.12.13-.16.2-.06.06-.09.12a12.37,12.37,0,0,0-1.19-1.48,10.43,10.43,0,0,0-4.07-2.84c-.17-.4-.35-.78-.53-1.16-.49-3.39-1.4-7.85-2.2-8.44s-1.32-1.27-5.8-.82l-.38-.25a12.07,12.07,0,0,0,.56-1.47c0-.72.07-1.44.06-2.14a16.16,16.16,0,0,0,3.12-1.27c1.1-.89-2.26-11.82-3.5-11.82-.43,0-2.68.27-3.7.39A18.41,18.41,0,0,0,59.3,1.12L58.8,0a14.7,14.7,0,0,0-9,2.82l.28.93A17.86,17.86,0,0,0,41.52,19.4c-.87.5-2.88,1.65-3.23,1.92-1,.74,2.85,11.51,4.26,11.56a14.71,14.71,0,0,0,3.19-.82c.33.45.68.88,1,1.31-4.08,1.58-6.67,2.9-7,3.42-.54.71.27,4.08,1,6.56-1.43.95-3.09,2.91-3.65,7,0,.2-.05.41-.07.62a2.07,2.07,0,0,0-.83.4,2.85,2.85,0,0,0-.67.76l-.12.2a2.56,2.56,0,0,0-.11.24l0,.06-.09.23,0,0-.09.29v.06a2.64,2.64,0,0,0-.07.3v.05a2,2,0,0,0,0,.24s0,.06,0,.08l0,.34h0a0,0,0,0,0,0,0,.1.1,0,0,0,0-.05h0l0,0,0,0,0,0,0,0,0-.06,0,0-.06-.08,0,0-.1-.13s0,0,0,0l-.09-.09-.09-.09,0,0,0,0-.07-.07-.17-.14h0q-.25-.2-.6-.42h0a8.25,8.25,0,0,0-2-.84c-.74-2.54-1.68-4.8-1.71-7,0-2.36.65-4.18.77-6.23a10,10,0,0,0,0-1.72l-.06-.39v-.07c0-.12,0-.23-.05-.34l0-.08c0-.1,0-.21-.07-.31v-.05a2,2,0,0,0-.07-.26v-.06L30,35.21l0-.06a1.55,1.55,0,0,0-.08-.23l0-.05-.09-.19v0l-.11-.18,0-.05-.12-.15,0,0-.12-.13,0,0-.13-.1,0,0L29,33.84l0,0-.16-.07h0l-.15,0h0l-.17,0h-.63l-.09,0h-.07l-.17,0c-1.43.37-2.22,2.13-2.59,4.46-.07.46-.13.93-.17,1.42-.27,3-.58,7.79-1.08,8.53a.41.41,0,0,1-.07.12c-.14.16-.47.29-1.2-.74a18.75,18.75,0,0,1-1.67-3.13c-1.94-4.3-5.24-7.79-7.56-8.21a1.88,1.88,0,0,0-1.52.29l-.15.13a.12.12,0,0,0,0,.05l-.09.08,0,.06a.46.46,0,0,0-.07.07l-.05.07-.06.08a.43.43,0,0,0,0,.07l0,.07,0,.08a.2.2,0,0,0,0,.08l0,.07,0,.09,0,.07a.36.36,0,0,0,0,.1l0,.12s0,.07,0,.11a.22.22,0,0,1,0,.08v.09a.28.28,0,0,0,0,.09v.08a.38.38,0,0,0,0,.1v.08s0,.06,0,.1,0,.06,0,.09,0,.06,0,.09,0,.06,0,.09a.29.29,0,0,0,0,.09.36.36,0,0,0,0,.1s0,.06,0,.09l0,.11,0,.09.06.17,0,.09a17583154008579.8,17583154008579.8,0,0,1,.08.2.36.36,0,0,0,0,.09,1,1,0,0,0,0,.1l0,.1a.31.31,0,0,1,.05.1l0,.09s0,.07.05.1l.05.09,0,.1a.41.41,0,0,1,.05.09l.07.11a.25.25,0,0,0,0,.07c.09.15.18.3.28.44l0,0,.1.14,0,0,.1.14,0,0,.11.15h0a.9.9,0,0,0,.45.57l.07.09c.24.29.5.56.74.82,1.87,1.92,2.9,3.12,1.52,3.69s-2.12-3.06-4.2-3.46h0a2,2,0,0,0-.78,0C7.43,44,6.51,46.72,8,48l.2.17,0,0a2.08,2.08,0,0,0,1.32,1l.1.07c1.5,1,3.13,2.09,3.07,2.88-.09,1.12-.85,1.48-3,.52a6.56,6.56,0,0,0-3.48-.51c-1,.16-1.81.65-1.83,1.51a4.53,4.53,0,0,0,2,4.13,12.14,12.14,0,0,0,2.65,1l1.47.36a.87.87,0,0,1,.09.11c.53.75.23,1.09-.87,1.16a8.89,8.89,0,0,0-3.61.82h0a1.32,1.32,0,0,0-.68,1.05c0,1.58,1.36,3.7,5.35,4.22l.38,0h1.42a5.17,5.17,0,0,0,.57,0h0l.19,0h.07l.16,0,.08,0,.13,0H14l.12,0,.07,0,.11,0,.07,0,.1,0,.06,0,.09,0,.05,0,.1,0h0a.41.41,0,0,0,.11-.07h0a1.42,1.42,0,0,0,.62-.56,11.66,11.66,0,0,0,4.32,1.12l-.12.18a18.75,18.75,0,0,0,10.79,5.27,13.77,13.77,0,0,0,3.86-.19,14.77,14.77,0,0,0,3-.91s2.7.74,6.52-1.43h0c.35-.2.7-.42,1.07-.67,0,0,.14.61.35,1.28l.15.47h0l-.08.06-.13.11c-.07.06-.17.14-.27.24-.92.82-2.82,2.65-2.62,3.72s1.17,1.59,2.76,1.56l-1.44.87h0c-1.07.65-2.46,1.53-3.22,2.11l-.06,0h0c-1.31,1-1.86,2.47-4.07,4.18s-2.17,3-3,6.53c-.38,1.54-.79,3.08-1.13,4.33-.44,1.62-.76,2.75-.76,2.75a13,13,0,0,0-1.51,1.74l-.05.06,0,0-.06.09,0,0h0a15.64,15.64,0,0,0-1,1.56,12.66,12.66,0,0,0-.83,1.9,10.39,10.39,0,0,0-.33,1.16,32.13,32.13,0,0,0-.63,4.55c0,.61-.07,1.16-.08,1.64,0,1.08,0,1.77,0,1.77a10.57,10.57,0,0,0-1,1.39h0a15.55,15.55,0,0,0-1.39,2.83,12.16,12.16,0,0,0-.73,3.26c-.3,3.76,3.87,14.15,4.9,16.65-8.23-2.41-17.24-3.5-23.74-.22A9.11,9.11,0,0,0,2.77,137l-.51.38.06,0a7.29,7.29,0,0,0-.65.72,5.57,5.57,0,0,0-1.41,1.63c-.49.87-.29,2.44.57,4.47.18.43.39.87.63,1.33a39.08,39.08,0,0,0,4.68,6.87c.27.33.56.67.85,1a64.46,64.46,0,0,0,4.94,5.08l1,.86c1.64,1.47,3.44,2.95,5.39,4.4l1,.75c2.21,1.58,4.59,3.14,7.16,4.62l1.1.62q3.3,1.84,7,3.48l1.18.52c2.13.91,4.35,1.76,6.66,2.53l.57.19h0c.31,0,.61-.09.92-.15,7.67-1.5,12.31-8.43,13.09-13.51,0,0,0-.11,0-.33a6.74,6.74,0,0,0-.3-3.34A24.52,24.52,0,0,0,53,151.17a33.11,33.11,0,0,0-2.17-4.29,85.28,85.28,0,0,0-.13-10.55c-.52-5.34-2.22-9.49-1.94-12.35,0,0,2.54-1.18,4.64-10,.26-1.09.51-2.3.75-3.64l.19-.06c1.1-.35,6.72-2.37,8.94-7.36,2.47-5.54,4.94-6.34,6.27-5.48s6.9,6.16,15.09,5.76c0,0,.24.53.68,1.35h0a28.06,28.06,0,0,0,2.07,3.22,15,15,0,0,0,5.14,4.54,54.9,54.9,0,0,1,.78,11.32c-.13,5.13.45,11.45,2.23,15.31a34.33,34.33,0,0,0,.82,3.43,24.43,24.43,0,0,0,2.13,8.5,6.6,6.6,0,0,0,1.86,2.79l.24.23c3.79,3.45,11.75,5.94,18.67,2.28q.41-.21.81-.45h0l.33-.51c1.31-2.05,2.51-4.11,3.59-6.15.2-.38.4-.76.59-1.14,1.22-2.39,2.3-4.76,3.24-7.09.16-.4.31-.79.46-1.18a83.87,83.87,0,0,0,2.67-8.09c.11-.41.22-.82.32-1.22.61-2.36,1.08-4.64,1.44-6.82.07-.42.13-.84.19-1.26a64.74,64.74,0,0,0,.66-7c0-.45,0-.88,0-1.31A38.62,38.62,0,0,0,132.93,105.59ZM29.86,99h0ZM45.27,74.91l-.19,0a1,1,0,0,1-.41-.16.49.49,0,0,1-.15-.17.41.41,0,0,1-.05-.09.85.85,0,0,1,0-.23,2.77,2.77,0,0,1,.4-1.08,5.28,5.28,0,0,1,.37-.55l.1-.13.19-.23a7.22,7.22,0,0,1,.49-.56A14.39,14.39,0,0,0,45.27,74.91Zm42.39-9.5h0s3.38-.6,3.91.16c.38.54.13,1.37-1.22,1.87a7.13,7.13,0,0,1-2,.4c-.17-.64-.39-1.36-.67-2.16Z"/><path class="cls-81" d="M132.93,105.59c-.11-.51-.22-1-.35-1.43-.61-2.12-1.44-3.47-2.36-3.84a5.74,5.74,0,0,0-2.12-.38,8,8,0,0,0-1-.15l0-.05h-.63a9.31,9.31,0,0,0-2.53.33c-4,.85-7.7,3.26-11.07,6.44-.24-2-.7-6.1-1.09-10.08a17.89,17.89,0,0,0-3.15-8.34A10.3,10.3,0,0,0,106,85.3s-2.55-9.63-8.55-11.91l-.34-.12L97,73.2h0a13.65,13.65,0,0,0-5.63-.83h0a5,5,0,0,0-1.06.15h0l-.26.06a8.09,8.09,0,0,0-1.28.43h0l-.32.14,0,0,0,0h0l0,0h0l0-.06v0l0-.07v0l0-.09h0a3.63,3.63,0,0,0,.14-.51v0a.59.59,0,0,0,0-.13V72s0-.09,0-.13v-.07s0-.1,0-.15v-.07a.86.86,0,0,1,0-.16v-.29c0-.17,0-.34,0-.53l0-.35c0-.22,0-.45-.09-.7A5.78,5.78,0,0,0,90.22,69a7,7,0,0,0,2.41-2,2.32,2.32,0,0,0,0-2.78,3.4,3.4,0,0,0-1.89-1.08,14.88,14.88,0,0,0-2.93-.48,21.32,21.32,0,0,0-.26-3c0-.13,0-.27-.07-.4h0a11.72,11.72,0,0,0-.54-2,16.42,16.42,0,0,0,1.58.93.7.7,0,0,0,.14.08l.06,0,.09.05h0c2.28,1.19,6.3,2.82,10,2a9,9,0,0,0,1-.3,13.23,13.23,0,0,0,1.31-.58A10.36,10.36,0,0,0,105.6,55a12.74,12.74,0,0,0,3.59-.12,12,12,0,0,0,5-2.12,1.48,1.48,0,0,0,.71.43h0l.13,0h0l.1,0h0l.1,0h.06l.11,0h.07l.11,0h.73l.19,0h0l.56-.07h0l.29-.06h.07l.25-.06.09,0,.24-.06.12,0,.14,0,.13,0h0c.12,0,.25-.07.37-.12,3.82-1.25,4.82-3.59,4.47-5.14a1.29,1.29,0,0,0-.86-.9h0a8.72,8.72,0,0,0-3.7-.14c-1.1.13-1.45-.14-1.07-1a.75.75,0,0,1,.07-.12l1.38-.63a11.9,11.9,0,0,0,2.41-1.46,4.52,4.52,0,0,0,1.22-4.43c-.18-.84-1-1.18-2.07-1.14a6.57,6.57,0,0,0-3.33,1.15c-1.9,1.34-2.72,1.12-3,0-.2-.76,1.2-2.12,2.47-3.41l.09-.08a2.14,2.14,0,0,0,1.12-1.19v0l.17-.21c1.24-1.58-.17-4.11-2.87-4.1a2.07,2.07,0,0,0-.77.14h0c-2,.78-2.17,4.44-3.48,4.18-1.47-.31-.68-1.67.8-3.91.2-.3.39-.61.58-1a.41.41,0,0,0,.05-.09.89.89,0,0,0,.34-.65h0c0-.06,0-.11.08-.16l0,0,.07-.15,0-.05a1.11,1.11,0,0,0,.07-.16l0,0c.07-.16.13-.32.19-.49l0-.07a.56.56,0,0,0,0-.12l0-.1a.42.42,0,0,0,0-.1l0-.11,0-.1,0-.1,0-.11,0-.1a.43.43,0,0,1,0-.11.3.3,0,0,0,0-.1.36.36,0,0,0,0-.1.43.43,0,0,0,0-.11s0-.06,0-.09,0-.12,0-.18a.31.31,0,0,0,0-.1s0-.07,0-.11a.28.28,0,0,1,0-.09v-.38a.28.28,0,0,1,0-.09s0-.06,0-.09,0-.06,0-.09,0-.06,0-.09,0-.06,0-.09a.19.19,0,0,1,0-.08l0-.09a.31.31,0,0,0,0-.08l0-.1a.61.61,0,0,0,0-.12.3.3,0,0,0,0-.08.16.16,0,0,0,0-.07l0-.08,0-.07,0-.07,0-.07-.06-.06L113.3,24a.23.23,0,0,0-.07-.07l-.06-.05a.27.27,0,0,0-.08-.07l-.06,0-.1-.07-.06,0-.17-.09a1.9,1.9,0,0,0-1.55,0c-2.2.85-4.79,4.89-5.9,9.48a19.37,19.37,0,0,1-1.06,3.38c-.52,1.15-.88,1.08-1,1a.29.29,0,0,1-.09-.1c-.63-.64-1.82-5.26-2.65-8.18-.13-.48-.28-.93-.43-1.36-.8-2.23-1.9-3.82-3.37-3.91h-.73l-.18,0h0l-.17.06,0,0L95.3,24h0l-.14.1,0,0a.74.74,0,0,0-.13.12l0,0a1.47,1.47,0,0,0-.1.13l0,0-.09.15,0,0a.89.89,0,0,0-.08.17l0,.06a1.07,1.07,0,0,0-.07.19l0,0c0,.07,0,.13-.05.2s0,0,0,.06,0,.16,0,.24v.07l0,.27V26a2.28,2.28,0,0,0,0,.27v0c0,.1,0,.21,0,.32v.49c0,.13,0,.26,0,.4a8.91,8.91,0,0,0,.27,1.69c.5,2,1.51,3.66,1.92,6a10.16,10.16,0,0,1,.12,1.93c-.31.12-.65.26-1,.43a9.62,9.62,0,0,0-1.78,1.11h0l-.19.16h0l0,0h0l-.29.26-.09.09-.18.17-.14.15-.12.13-.16.2-.06.06-.09.12a12.37,12.37,0,0,0-1.19-1.48,10.43,10.43,0,0,0-4.07-2.84c-.17-.4-.35-.78-.53-1.16-.49-3.39-1.4-7.85-2.2-8.44s-1.32-1.27-5.8-.82l-.38-.25a12.07,12.07,0,0,0,.56-1.47c0-.72.07-1.44.06-2.14a16.16,16.16,0,0,0,3.12-1.27c1.1-.89-2.26-11.82-3.5-11.82-.43,0-2.68.27-3.7.39A18.41,18.41,0,0,0,59.3,1.12L58.8,0a14.7,14.7,0,0,0-9,2.82l.28.93A17.86,17.86,0,0,0,41.52,19.4c-.87.5-2.88,1.65-3.23,1.92-1,.74,2.85,11.51,4.26,11.56a14.71,14.71,0,0,0,3.19-.82c.33.45.68.88,1,1.31-4.08,1.58-6.67,2.9-7,3.42-.54.71.27,4.08,1,6.56-1.43.95-3.09,2.91-3.65,7,0,.2-.05.41-.07.62a2.07,2.07,0,0,0-.83.4,2.85,2.85,0,0,0-.67.76l-.12.2a2.56,2.56,0,0,0-.11.24l0,.06-.09.23,0,0-.09.29v.06a2.64,2.64,0,0,0-.07.3v.05a2,2,0,0,0,0,.24s0,.06,0,.08l0,.34h0a0,0,0,0,0,0,0,.1.1,0,0,0,0-.05h0l0,0,0,0,0,0,0,0,0-.06,0,0-.06-.08,0,0-.1-.13s0,0,0,0l-.09-.09-.09-.09,0,0,0,0-.07-.07-.17-.14h0q-.25-.2-.6-.42h0a8.25,8.25,0,0,0-2-.84c-.74-2.54-1.68-4.8-1.71-7,0-2.36.65-4.18.77-6.23a10,10,0,0,0,0-1.72l-.06-.39v-.07c0-.12,0-.23-.05-.34l0-.08c0-.1,0-.21-.07-.31v-.05a2,2,0,0,0-.07-.26v-.06L30,35.21l0-.06a1.55,1.55,0,0,0-.08-.23l0-.05-.09-.19v0l-.11-.18,0-.05-.12-.15,0,0-.12-.13,0,0-.13-.1,0,0L29,33.84l0,0-.16-.07h0l-.15,0h0l-.17,0h-.63l-.09,0h-.07l-.17,0c-1.43.37-2.22,2.13-2.59,4.46-.07.46-.13.93-.17,1.42-.27,3-.58,7.79-1.08,8.53a.41.41,0,0,1-.07.12c-.14.16-.47.29-1.2-.74a18.75,18.75,0,0,1-1.67-3.13c-1.94-4.3-5.24-7.79-7.56-8.21a1.88,1.88,0,0,0-1.52.29l-.15.13a.12.12,0,0,0,0,.05l-.09.08,0,.06a.46.46,0,0,0-.07.07l-.05.07-.06.08a.43.43,0,0,0,0,.07l0,.07,0,.08a.2.2,0,0,0,0,.08l0,.07,0,.09,0,.07a.36.36,0,0,0,0,.1l0,.12s0,.07,0,.11a.22.22,0,0,1,0,.08v.09a.28.28,0,0,0,0,.09v.08a.38.38,0,0,0,0,.1v.08s0,.06,0,.1,0,.06,0,.09,0,.06,0,.09,0,.06,0,.09a.29.29,0,0,0,0,.09.36.36,0,0,0,0,.1s0,.06,0,.09l0,.11,0,.09.06.17,0,.09a17583154008579.8,17583154008579.8,0,0,1,.08.2.36.36,0,0,0,0,.09,1,1,0,0,0,0,.1l0,.1a.31.31,0,0,1,.05.1l0,.09s0,.07.05.1l.05.09,0,.1a.41.41,0,0,1,.05.09l.07.11a.25.25,0,0,0,0,.07c.09.15.18.3.28.44l0,0,.1.14,0,0,.1.14,0,0,.11.15h0a.9.9,0,0,0,.45.57l.07.09c.24.29.5.56.74.82,1.87,1.92,2.9,3.12,1.52,3.69s-2.12-3.06-4.2-3.46h0a2,2,0,0,0-.78,0C7.43,44,6.51,46.72,8,48l.2.17,0,0a2.08,2.08,0,0,0,1.32,1l.1.07c1.5,1,3.13,2.09,3.07,2.88-.09,1.12-.85,1.48-3,.52a6.56,6.56,0,0,0-3.48-.51c-1,.16-1.81.65-1.83,1.51a4.53,4.53,0,0,0,2,4.13,12.14,12.14,0,0,0,2.65,1l1.47.36a.87.87,0,0,1,.09.11c.53.75.23,1.09-.87,1.16a8.89,8.89,0,0,0-3.61.82h0a1.32,1.32,0,0,0-.68,1.05c0,1.58,1.36,3.7,5.35,4.22l.38,0h1.42a5.17,5.17,0,0,0,.57,0h0l.19,0h.07l.16,0,.08,0,.13,0H14l.12,0,.07,0,.11,0,.07,0,.1,0,.06,0,.09,0,.05,0,.1,0h0a.41.41,0,0,0,.11-.07h0a1.42,1.42,0,0,0,.62-.56,11.66,11.66,0,0,0,4.32,1.12l-.12.18a18.75,18.75,0,0,0,10.79,5.27,13.77,13.77,0,0,0,3.86-.19,14.77,14.77,0,0,0,3-.91s2.7.74,6.52-1.43h0c.35-.2.7-.42,1.07-.67,0,0,.14.61.35,1.28l.15.47h0l-.08.06-.13.11c-.07.06-.17.14-.27.24-.92.82-2.82,2.65-2.62,3.72s1.17,1.59,2.76,1.56l-1.44.87h0c-1.07.65-2.46,1.53-3.22,2.11l-.06,0h0c-1.31,1-1.86,2.47-4.07,4.18s-2.17,3-3,6.53c-.38,1.54-.79,3.08-1.13,4.33-.44,1.62-.76,2.75-.76,2.75a13,13,0,0,0-1.51,1.74l-.05.06,0,0-.06.09,0,0h0a15.64,15.64,0,0,0-1,1.56,12.66,12.66,0,0,0-.83,1.9,10.39,10.39,0,0,0-.33,1.16,32.13,32.13,0,0,0-.63,4.55c0,.61-.07,1.16-.08,1.64,0,1.08,0,1.77,0,1.77a10.57,10.57,0,0,0-1,1.39h0a15.55,15.55,0,0,0-1.39,2.83,12.16,12.16,0,0,0-.73,3.26c-.3,3.76,3.87,14.15,4.9,16.65-8.23-2.41-17.24-3.5-23.74-.22A9.11,9.11,0,0,0,2.77,137l-.51.38.06,0a7.29,7.29,0,0,0-.65.72,5.57,5.57,0,0,0-1.41,1.63c-.49.87-.29,2.44.57,4.47.18.43.39.87.63,1.33a39.08,39.08,0,0,0,4.68,6.87c.27.33.56.67.85,1a64.46,64.46,0,0,0,4.94,5.08l1,.86c1.64,1.47,3.44,2.95,5.39,4.4l1,.75c2.21,1.58,4.59,3.14,7.16,4.62l1.1.62q3.3,1.84,7,3.48l1.18.52c2.13.91,4.35,1.76,6.66,2.53l.57.19h0c.31,0,.61-.09.92-.15,7.67-1.5,12.31-8.43,13.09-13.51,0,0,0-.11,0-.33a6.74,6.74,0,0,0-.3-3.34A24.52,24.52,0,0,0,53,151.17a33.11,33.11,0,0,0-2.17-4.29,85.28,85.28,0,0,0-.13-10.55c-.52-5.34-2.22-9.49-1.94-12.35,0,0,2.54-1.18,4.64-10,.26-1.09.51-2.3.75-3.64l.19-.06c1.1-.35,6.72-2.37,8.94-7.36,2.47-5.54,4.94-6.34,6.27-5.48s6.9,6.16,15.09,5.76c0,0,.24.53.68,1.35h0a28.06,28.06,0,0,0,2.07,3.22,15,15,0,0,0,5.14,4.54,54.9,54.9,0,0,1,.78,11.32c-.13,5.13.45,11.45,2.23,15.31a34.33,34.33,0,0,0,.82,3.43,24.43,24.43,0,0,0,2.13,8.5,6.6,6.6,0,0,0,1.86,2.79l.24.23c3.79,3.45,11.75,5.94,18.67,2.28q.41-.21.81-.45h0l.33-.51c1.31-2.05,2.51-4.11,3.59-6.15.2-.38.4-.76.59-1.14,1.22-2.39,2.3-4.76,3.24-7.09.16-.4.31-.79.46-1.18a83.87,83.87,0,0,0,2.67-8.09c.11-.41.22-.82.32-1.22.61-2.36,1.08-4.64,1.44-6.82.07-.42.13-.84.19-1.26a64.74,64.74,0,0,0,.66-7c0-.45,0-.88,0-1.31A38.62,38.62,0,0,0,132.93,105.59ZM29.86,99h0ZM45.27,74.91l-.19,0a1,1,0,0,1-.41-.16.49.49,0,0,1-.15-.17.41.41,0,0,1-.05-.09.85.85,0,0,1,0-.23,2.77,2.77,0,0,1,.4-1.08,5.28,5.28,0,0,1,.37-.55l.1-.13.19-.23a7.22,7.22,0,0,1,.49-.56A14.39,14.39,0,0,0,45.27,74.91Zm42.39-9.5h0s3.38-.6,3.91.16c.38.54.13,1.37-1.22,1.87a7.13,7.13,0,0,1-2,.4c-.17-.64-.39-1.36-.67-2.16Z"/></g></g></g></svg>