<svg xmlns="http://www.w3.org/2000/svg" viewBox="0 0 206.67 291.33"><defs><style>.cls-1{fill:#e0e0e0;}.cls-1,.cls-2,.cls-3{fill-rule:evenodd;}.cls-2,.cls-4{fill:#ebebeb;}.cls-3{fill:#f5f5f5;}</style></defs><title>g1</title><g id="Layer_2" data-name="Layer 2"><g id="Layer_2-2" data-name="Layer 2"><path class="cls-1" d="M116.11,86a41.26,41.26,0,0,1,4-10.22l-5.58-8.54L126.3,55.15,135,60.44a41.26,41.26,0,0,1,10.09-4.37l2.09-10,16.86-.27,2.42,9.9a41.26,41.26,0,0,1,10.22,4l8.54-5.57,12.11,11.73-5.29,8.71a41,41,0,0,1,4.37,10.08l10,2.09.27,16.87-9.9,2.41a41.26,41.26,0,0,1-4,10.22l5.57,8.54L186.57,137l-8.71-5.29A41,41,0,0,1,167.78,136l-2.09,10-16.87.27-2.41-9.9a41.1,41.1,0,0,1-10.22-4l-8.54,5.57-12.12-11.72,5.3-8.72a41,41,0,0,1-4.37-10.08l-10-2.09-.27-16.86,9.9-2.42Zm22.23,9.56a18.09,18.09,0,1,0,17.79-18.39A18.08,18.08,0,0,0,138.34,95.58Z"/><path class="cls-2" d="M4,92.85a16.6,16.6,0,0,1,1.61-4.08L3.34,85.36,8,80.51l3.48,2.12a16.85,16.85,0,0,1,4-1.75l.84-4,6.74-.11,1,3.95a16.54,16.54,0,0,1,4.09,1.62l3.41-2.23,4.84,4.69L34.31,88.3a16.27,16.27,0,0,1,1.74,4l4,.84.11,6.73-4,1A16.45,16.45,0,0,1,34.58,105l2.23,3.41-4.69,4.85-3.48-2.12a16.85,16.85,0,0,1-4,1.75l-.84,4-6.74.11-1-4A16.54,16.54,0,0,1,12,111.36l-3.41,2.23L3.73,108.9l2.11-3.48a16.27,16.27,0,0,1-1.74-4l-4-.83L0,93.82l4-1Zm8.88,3.82A7.23,7.23,0,1,0,20,89.33,7.22,7.22,0,0,0,12.84,96.67Z"/><path class="cls-3" d="M28.42,241.43A34.17,34.17,0,0,1,31.77,233l-4.62-7.07,9.71-10,7.22,4.38a34.38,34.38,0,0,1,8.35-3.62l1.73-8.26,14-.23,2,8.2a34.24,34.24,0,0,1,8.47,3.35l7.06-4.62,10,9.71L91.3,232a34,34,0,0,1,3.62,8.35l8.26,1.73.23,14-8.2,2a34.24,34.24,0,0,1-3.35,8.47l4.62,7.06-9.71,10-7.21-4.39a34.23,34.23,0,0,1-8.36,3.62l-1.73,8.26-14,.23-2-8.2a34.17,34.17,0,0,1-8.46-3.35L38,284.4l-10-9.71,4.38-7.22a34.38,34.38,0,0,1-3.62-8.35l-8.26-1.73-.23-14,8.2-2Zm18.41,7.92a15,15,0,1,0,14.73-15.23A15,15,0,0,0,46.83,249.35Z"/><path class="cls-4" d="M36.05.08A19.68,19.68,0,0,1,39.1,0c1,0,2.19,0,3.59.12s3,.14,4.73.36A108.24,108.24,0,0,1,59.63,2.42,120.28,120.28,0,0,1,74.18,6.64,120.46,120.46,0,0,1,88,12.79a109.48,109.48,0,0,1,10.58,6.4c1.48,1,2.73,1.94,3.85,2.77s2.07,1.58,2.82,2.22a18.81,18.81,0,0,1,2.28,2,19.21,19.21,0,0,1-2.5-1.76c-.77-.59-1.73-1.31-2.89-2.09s-2.42-1.73-3.91-2.65a117.33,117.33,0,0,0-10.61-6.19,128.43,128.43,0,0,0-13.77-6A128.77,128.77,0,0,0,59.45,3.22a118.13,118.13,0,0,0-12.1-2.11C45.62.85,44,.75,42.65.61S40.07.39,39.09.35A21,21,0,0,1,36.05.08Z"/><path class="cls-4" d="M4.48,189.89a5.73,5.73,0,0,1,.91-.77L8.13,187c1.18-.9,2.65-2,4.42-3.14s3.73-2.57,6-3.91,4.77-2.91,7.54-4.37,5.75-3,8.91-4.55a185.38,185.38,0,0,1,21.33-8.38,184.48,184.48,0,0,1,22.27-5.44c3.48-.55,6.78-1.12,9.91-1.42s6-.6,8.68-.76,5.06-.22,7.18-.28,3.94,0,5.42,0l3.43.12a6.55,6.55,0,0,1,1.19.1,5.81,5.81,0,0,1-1.19.08l-3.43,0c-1.48,0-3.3,0-5.41.13s-4.51.14-7.15.41-5.55.44-8.64.87-6.39.92-9.85,1.49a195.91,195.91,0,0,0-22.14,5.49,195.13,195.13,0,0,0-21.26,8.27c-3.15,1.53-6.18,2.93-8.9,4.46s-5.28,2.9-7.56,4.26-4.3,2.66-6.09,3.79-3.28,2.15-4.49,3L5.5,189.26A6.08,6.08,0,0,1,4.48,189.89Z"/><path class="cls-4" d="M126.93,281.47a3.57,3.57,0,0,1,.12-.93c.13-.69.3-1.55.51-2.6s.52-2.52.93-4.11.82-3.41,1.42-5.39c1.1-4,2.63-8.66,4.54-13.79s4.33-10.63,7.14-16.28,5.86-10.84,8.77-15.47,5.79-8.62,8.33-11.89c1.22-1.66,2.44-3.09,3.47-4.36s2-2.35,2.72-3.21l1.79-2a4.05,4.05,0,0,1,.66-.65,3.26,3.26,0,0,1-.53.77l-1.65,2.08c-.73.89-1.62,2-2.61,3.29s-2.16,2.75-3.35,4.43c-2.46,3.3-5.23,7.35-8.14,12s-5.84,9.82-8.67,15.43-5.17,11.11-7.16,16.18-3.53,9.72-4.71,13.67c-.63,2-1.09,3.76-1.54,5.34s-.8,2.93-1.07,4.05-.5,1.89-.68,2.57A3.81,3.81,0,0,1,126.93,281.47Z"/></g></g></svg>