<svg xmlns="http://www.w3.org/2000/svg" viewBox="0 0 325.07 368.07"><defs><style>.cls-1{fill:none;}.cls-2,.cls-3{fill:#e0e0e0;}.cls-3,.cls-4{fill-rule:evenodd;}.cls-4{fill:#f5f5f5;}.cls-5{fill:#ebebeb;}</style></defs><title>g2</title><g id="Layer_2" data-name="Layer 2"><g id="Layer_2-2" data-name="Layer 2"><path class="cls-1" d="M243.65,313.79a36.85,36.85,0,0,1,3.62-9.14l-5-7.63,10.49-10.84,7.79,4.74a36.59,36.59,0,0,1,9-3.91l1.87-8.92,15.08-.25,2.16,8.85a37.24,37.24,0,0,1,9.14,3.62l7.63-5,10.83,10.48-4.73,7.79a37.21,37.21,0,0,1,3.91,9l8.92,1.87.24,15.08-8.85,2.15a36.91,36.91,0,0,1-3.61,9.14l5,7.63-10.49,10.84-7.78-4.74a37.24,37.24,0,0,1-9,3.92L288,367.42l-15.08.25-2.15-8.85a36.77,36.77,0,0,1-9.15-3.62l-7.63,5L243.14,349.7l4.73-7.79a37,37,0,0,1-3.91-9L235,331,234.8,316l8.85-2.16Zm19.88,8.55a16.17,16.17,0,1,0,15.91-16.44A16.17,16.17,0,0,0,263.53,322.34Z"/><path class="cls-2" d="M263.53,322.34a12.3,12.3,0,0,1,.27-4,16.09,16.09,0,0,1,5.71-9.21,16.39,16.39,0,0,1,6.87-3.26,16.63,16.63,0,0,1,8.71.53,16.63,16.63,0,0,1,7.83,5.64,16.49,16.49,0,0,1,.32,19.63,15.5,15.5,0,0,1-3.47,3.57,15,15,0,0,1-4.17,2.31,16.51,16.51,0,0,1-8.69.82,16.3,16.3,0,0,1-7-3,16.13,16.13,0,0,1-6-9,12,12,0,0,1-.4-4,37.86,37.86,0,0,0,.73,3.89,16.08,16.08,0,0,0,6.05,8.6,15.75,15.75,0,0,0,15,2,14.74,14.74,0,0,0,3.95-2.22,14.9,14.9,0,0,0,3.27-3.4,15.7,15.7,0,0,0-.31-18.61,15.77,15.77,0,0,0-7.39-5.38,16,16,0,0,0-20.69,11.24A35.55,35.55,0,0,0,263.53,322.34Z"/><path class="cls-2" d="M243.65,313.79a4.17,4.17,0,0,1-.54.17l-1.67.44-6.61,1.69.11-.14c.08,3.85.19,8.93.33,15.07l-.18-.21,8.93,1.83.15,0,0,.15a37,37,0,0,0,3.91,8.94l.09.15-.09.15-4.71,7.8,0-.39,10.86,10.47-.44,0,7.62-5,.19-.12.19.11a36.66,36.66,0,0,0,9.06,3.57l.22.05.06.23c.67,2.74,1.41,5.77,2.17,8.85l-.39-.31L288,367l-.39.33c.57-2.78,1.21-5.83,1.85-8.92l.06-.25.24-.07a37,37,0,0,0,8.91-3.87l.23-.14.22.14,7.79,4.73-.54.07,10.49-10.84-.06.55-5-7.63-.14-.23.13-.23a36.67,36.67,0,0,0,3.57-9h0l.07-.27.26-.06,8.85-2.15-.34.43q-.12-7.63-.24-15.07l.35.42-8.92-1.87-.26-.06-.07-.25a36.21,36.21,0,0,0-3.86-8.92l-.13-.22.13-.22,4.74-7.79.07.53-10.83-10.5.51.05-7.63,5-.21.13-.21-.12a36.28,36.28,0,0,0-9-3.59l-.22-.06-.06-.22c-.73-3-1.44-6-2.14-8.86l.37.28-15.08.22.32-.27c-.66,3.13-1.28,6.08-1.88,8.91l0,.19-.19.05a36.79,36.79,0,0,0-9,3.86l-.16.09-.15-.09-7.77-4.76.33,0-10.54,10.79,0-.25,4.94,7.66,0,.07,0,.08a37.66,37.66,0,0,0-3,6.75l-.55,1.74c-.12.4-.19.58-.19.58s0-.21.12-.6.24-1,.48-1.77a35.88,35.88,0,0,1,2.89-6.84v.15l-5-7.6L242,297l.11-.12L252.58,286l.14-.15.18.11,7.81,4.71h-.31a37.28,37.28,0,0,1,9.09-4l-.23.24,1.85-8.92.05-.27h.28l15.07-.27h.3l.07.29c.7,2.87,1.43,5.81,2.17,8.84l-.28-.28A37.2,37.2,0,0,1,298,290h-.41l7.63-5,.27-.17.23.22,10.85,10.48.24.23-.17.29q-2.34,3.86-4.73,7.79v-.44a37.71,37.71,0,0,1,4,9.12l-.33-.31,8.92,1.87.34.07v.35q.12,7.44.25,15.08v.35l-.34.09-8.85,2.15.32-.32h0a37.36,37.36,0,0,1-3.66,9.24v-.46l5,7.63.19.3-.24.25L307,359.63l-.24.25-.3-.18L298.64,355h.45a37.68,37.68,0,0,1-9.13,4l.3-.32c-.65,3.09-1.29,6.14-1.88,8.92l-.06.32H288l-15.08.23h-.32l-.07-.31c-.75-3.08-1.48-6.11-2.15-8.85l.28.28a37.37,37.37,0,0,1-9.23-3.67h.38l-7.64,5-.23.15-.2-.19-10.81-10.51-.18-.18.13-.21,4.75-7.78v.3a37.37,37.37,0,0,1-3.91-9.1l.2.19-8.91-1.9-.18,0V331c-.07-6.14-.12-11.22-.16-15.08v-.11l.1,0,6.59-1.53,1.71-.38A4.51,4.51,0,0,1,243.65,313.79Z"/><path class="cls-3" d="M191.24,228.64a11.69,11.69,0,0,1,1.16-3l-1.61-2.46,3.39-3.5,2.51,1.53a11.88,11.88,0,0,1,2.92-1.26l.6-2.88,4.87-.08.69,2.86a11.71,11.71,0,0,1,3,1.17l2.46-1.62,3.5,3.39-1.53,2.52a11.81,11.81,0,0,1,1.26,2.91l2.88.6.08,4.87-2.86.7a11.77,11.77,0,0,1-1.16,2.95l1.61,2.46-3.39,3.5-2.52-1.53a11.81,11.81,0,0,1-2.91,1.26l-.6,2.88-4.87.08-.7-2.85A12.19,12.19,0,0,1,197,242l-2.46,1.61-3.5-3.39,1.53-2.51a11.88,11.88,0,0,1-1.26-2.92l-2.88-.6-.08-4.87,2.86-.69Zm6.41,2.75a5.23,5.23,0,1,0,5.14-5.3A5.23,5.23,0,0,0,197.65,231.39Z"/><path class="cls-4" d="M7.94,138.74a15.35,15.35,0,0,1,1.46-3.69l-2-3.07,4.23-4.37,3.14,1.91a15,15,0,0,1,3.64-1.58l.75-3.6,6.08-.09.87,3.56a15.19,15.19,0,0,1,3.69,1.46l3.08-2,4.36,4.23-1.91,3.14a14.76,14.76,0,0,1,1.58,3.64l3.6.75.1,6.08L37,146a14.79,14.79,0,0,1-1.46,3.69l2,3.08-4.23,4.37-3.14-1.91a14.78,14.78,0,0,1-3.64,1.57l-.75,3.6-6.08.1-.87-3.57a15,15,0,0,1-3.69-1.46l-3.07,2-4.37-4.23,1.91-3.14a14.9,14.9,0,0,1-1.58-3.63l-3.6-.76-.1-6.08,3.57-.87Zm8,3.45a6.52,6.52,0,1,0,6.42-6.63A6.52,6.52,0,0,0,16,142.19Z"/><path class="cls-5" d="M45,0a6.22,6.22,0,0,1-.66,1l-2,2.87c-.9,1.23-2,2.74-3.19,4.55S36.43,12.27,35,14.6s-3.08,4.82-4.68,7.6-3.28,5.76-5,8.92C22,37.51,18.53,44.66,15.37,52.36S9.72,67.6,7.66,74.51C6.7,78,5.74,81.28,5,84.41s-1.41,6-2,8.7-1,5.11-1.37,7.24-.68,4-.9,5.49-.4,2.59-.54,3.48a5.84,5.84,0,0,1-.25,1.2,7.11,7.11,0,0,1,.07-1.23c.1-.88.23-2.05.38-3.5s.39-3.38.75-5.52.68-4.6,1.24-7.28,1.09-5.63,1.86-8.75,1.62-6.46,2.57-9.95A234.09,234.09,0,0,1,14.55,52c3.17-7.73,6.64-14.91,10-21.29,1.76-3.16,3.4-6.19,5.11-8.92s3.27-5.28,4.78-7.56,2.94-4.3,4.19-6.08S41,4.9,42,3.7L44.16.93A6.7,6.7,0,0,1,45,0Z"/><path class="cls-5" d="M198.37,177a5.35,5.35,0,0,1-1,.19l-3,.39-2.13.26c-.77.12-1.61.3-2.51.46-1.79.37-3.86.66-6.08,1.3l-3.5.91c-1.21.33-2.43.79-3.72,1.2-2.6.78-5.26,1.94-8.08,3.08a107.37,107.37,0,0,0-17.23,9.67,108.51,108.51,0,0,0-14.95,12.94c-2,2.26-4,4.37-5.62,6.55-.83,1.07-1.68,2.07-2.4,3.1l-2,3c-1.36,1.87-2.33,3.72-3.28,5.28-.46.79-.92,1.51-1.29,2.2l-1,1.92-1.37,2.64a4.69,4.69,0,0,1-.53.9,4.37,4.37,0,0,1,.37-1l1.22-2.72c.27-.6.57-1.26.9-2s.79-1.45,1.23-2.25a60,60,0,0,1,3.19-5.38l2-3c.7-1,1.55-2.06,2.37-3.15,1.6-2.22,3.58-4.36,5.61-6.66a95.65,95.65,0,0,1,32.45-22.8c2.85-1.13,5.54-2.27,8.17-3,1.3-.39,2.54-.85,3.77-1.16l3.54-.86a60.64,60.64,0,0,1,6.14-1.17c.91-.15,1.75-.31,2.53-.4l2.15-.18,3-.23A4.37,4.37,0,0,1,198.37,177Z"/><path class="cls-5" d="M323.64,278.4a2.25,2.25,0,0,1-.44-.13l-1.29-.43L317,276.08l-3.52-1.29c-1.3-.45-2.73-.88-4.25-1.37-3.06-.95-6.51-2.16-10.42-3.15l-6.1-1.67c-2.13-.57-4.37-1-6.68-1.56-4.6-1.14-9.6-2-14.84-2.93a282.44,282.44,0,0,0-34.48-3.39A283.59,283.59,0,0,0,202.1,262c-5.29.64-10.33,1.16-15,2-2.33.4-4.6.71-6.76,1.15l-6.19,1.29c-4,.74-7.48,1.75-10.59,2.51-1.55.4-3,.73-4.33,1.1l-3.59,1.07-5,1.46-1.31.36a2.48,2.48,0,0,1-.45.09s.14-.08.42-.18l1.28-.44,4.95-1.62,3.58-1.14c1.32-.4,2.76-.76,4.31-1.18,3.11-.81,6.62-1.86,10.58-2.65l6.2-1.34c2.16-.46,4.44-.79,6.77-1.21,4.68-.89,9.73-1.44,15-2.1a273.26,273.26,0,0,1,34.75-1.34,275.52,275.52,0,0,1,34.58,3.46c5.26,1,10.26,1.85,14.87,3,2.31.56,4.56,1,6.69,1.61l6.11,1.72c3.91,1,7.34,2.29,10.39,3.29,1.52.52,3,1,4.24,1.44l3.5,1.37,4.84,1.91,1.25.52C323.51,278.31,323.65,278.38,323.64,278.4Z"/></g></g></svg>