<svg xmlns="http://www.w3.org/2000/svg" xmlns:xlink="http://www.w3.org/1999/xlink" viewBox="0 0 750.73 500"><defs><style>.cls-1{fill:none;}.cls-2{isolation:isolate;}.cls-3{clip-path:url(#clip-path);}.cls-4{fill:url(#linear-gradient);}.cls-5{opacity:0.42;}.cls-6{fill:#fff;}.cls-10,.cls-7,.cls-8,.cls-9{opacity:0.5;mix-blend-mode:overlay;}.cls-7{fill:url(#linear-gradient-2);}.cls-8{fill:url(#linear-gradient-3);}.cls-9{fill:url(#linear-gradient-4);}.cls-10{fill:url(#linear-gradient-5);}</style><clipPath id="clip-path"><path class="cls-1" d="M395.55,484.48c-36.71,9-71.49-3-99.27-23.58-30-22.24-43.44-52-67.72-78.7-9.93-10.9-27.35-27.46-43.79-28.51-20.63-1.31-37.49,17.44-57.09,21.2-21.8,4.19-45.09-7.76-57.23-24.23-23.73-32.18-9.81-81.92,21.09-108.79,29.46-25.62,78.07-40.42,84.94-83.21,4.51-28.13-3.17-46.6,11.89-73.48C225.61,18.74,300.88-2.17,369.9.7,424.75,3,482,10.76,527.94,39.19c19.86,12.29,42.71,28.59,45.52,53.75,2.52,22.57-6.81,37.84,15.37,52.62C718.6,232.1,694,337.38,548.83,386.94,489.65,407.15,457.72,469.31,395.55,484.48Z"/></clipPath><linearGradient id="linear-gradient" y1="250" x2="750" y2="250" gradientUnits="userSpaceOnUse"><stop offset="0" stop-color="#04074a"/><stop offset="1" stop-color="#2a246d"/></linearGradient><linearGradient id="linear-gradient-2" x1="138.57" y1="114.13" x2="-8.49" y2="17.11" gradientUnits="userSpaceOnUse"><stop offset="0" stop-color="#fff"/><stop offset="0.89" stop-color="#1d262d" stop-opacity="0"/></linearGradient><linearGradient id="linear-gradient-3" x1="611.56" y1="148.34" x2="759.65" y2="-41.61" xlink:href="#linear-gradient-2"/><linearGradient id="linear-gradient-4" x1="213.12" y1="359.66" x2="74.22" y2="445.44" xlink:href="#linear-gradient-2"/><linearGradient id="linear-gradient-5" x1="576.27" y1="403.59" x2="629.72" y2="465.55" xlink:href="#linear-gradient-2"/></defs><title>space</title><g class="cls-2"><g id="Layer_2" data-name="Layer 2"><g id="Layer_1-2" data-name="Layer 1"><g class="cls-3"><rect class="cls-4" width="750" height="500"/><g class="cls-5"><circle class="cls-6" cx="463.22" cy="97.75" r="1.18"/><circle class="cls-6" cx="326.02" cy="141.15" r="1.18"/><circle class="cls-6" cx="481.63" cy="206.06" r="1.18"/><circle class="cls-6" cx="516.1" cy="262.17" r="1.18"/><path class="cls-6" d="M448,181.57a1.18,1.18,0,0,1-2.35,0,1.18,1.18,0,1,1,2.35,0Z"/><circle class="cls-6" cx="579.21" cy="171.28" r="1.18"/><path class="cls-6" d="M416.88,65.63a1.18,1.18,0,1,1-1.18-1.18A1.18,1.18,0,0,1,416.88,65.63Z"/><path class="cls-6" d="M341.46,87.46a1.18,1.18,0,1,1-1.18-1.17A1.18,1.18,0,0,1,341.46,87.46Z"/><circle class="cls-6" cx="302.33" cy="88.44" r="1.18"/><path class="cls-6" d="M282.68,154.41a1.18,1.18,0,1,1-1.17-1.18A1.17,1.17,0,0,1,282.68,154.41Z"/><circle class="cls-6" cx="305.83" cy="190.63" r="1.18"/><path class="cls-6" d="M222.31,277.49a1.18,1.18,0,0,1-2.35,0,1.18,1.18,0,1,1,2.35,0Z"/><path class="cls-6" d="M230.81,254.6a1.18,1.18,0,1,1-1.18-1.18A1.17,1.17,0,0,1,230.81,254.6Z"/><path class="cls-6" d="M182.94,383a1.18,1.18,0,1,1-1.18-1.18A1.17,1.17,0,0,1,182.94,383Z"/><path class="cls-6" d="M201.75,344.37a1.18,1.18,0,1,1-1.18-1.18A1.18,1.18,0,0,1,201.75,344.37Z"/><circle class="cls-6" cx="213.98" cy="453.68" r="1.18"/><path class="cls-6" d="M172.72,479.07a1.18,1.18,0,1,1-1.18-1.18A1.17,1.17,0,0,1,172.72,479.07Z"/><path class="cls-6" d="M377.22,467.11a1.18,1.18,0,1,1-2.35,0,1.18,1.18,0,0,1,2.35,0Z"/><path class="cls-6" d="M455.6,457.75a1.18,1.18,0,1,1-1.17-1.18A1.17,1.17,0,0,1,455.6,457.75Z"/><path class="cls-6" d="M473.59,411.63a1.18,1.18,0,1,1-1.18-1.17A1.18,1.18,0,0,1,473.59,411.63Z"/><path class="cls-6" d="M388.52,400.4a1.18,1.18,0,1,1-1.18-1.18A1.18,1.18,0,0,1,388.52,400.4Z"/><path class="cls-6" d="M380.91,372.84a1.18,1.18,0,0,1-2.35,0,1.18,1.18,0,1,1,2.35,0Z"/><path class="cls-6" d="M362.77,373.81a1.18,1.18,0,1,1-1.18-1.18A1.17,1.17,0,0,1,362.77,373.81Z"/><circle class="cls-6" cx="583.85" cy="387.89" r="1.18"/><circle class="cls-6" cx="534.8" cy="379.49" r="1.18"/><path class="cls-6" d="M588,341.61a1.18,1.18,0,1,1-1.18-1.18A1.18,1.18,0,0,1,588,341.61Z"/><circle class="cls-6" cx="600.15" cy="285.88" r="1.18"/><circle class="cls-6" cx="574.68" cy="267.88" r="1.18"/><circle class="cls-6" cx="585.53" cy="217.65" r="1.18"/><circle class="cls-6" cx="592.02" cy="217.67" r="1.18"/><circle class="cls-6" cx="450.81" cy="127.99" r="1.18"/><circle class="cls-6" cx="362.05" cy="165.83" r="1.18"/><circle class="cls-6" cx="423.03" cy="179.9" r="1.18"/><path class="cls-6" d="M214.86,181a1.18,1.18,0,1,1-1.17-1.17A1.17,1.17,0,0,1,214.86,181Z"/><circle class="cls-6" cx="177.8" cy="233.84" r="1.18"/><path class="cls-6" d="M164.84,273.59a1.18,1.18,0,0,1-2.35,0,1.18,1.18,0,1,1,2.35,0Z"/><path class="cls-6" d="M173.4,156.46a1.18,1.18,0,1,1-1.17-1.17A1.17,1.17,0,0,1,173.4,156.46Z"/><path class="cls-6" d="M180.11,65.05a1.18,1.18,0,1,1-1.18-1.18A1.17,1.17,0,0,1,180.11,65.05Z"/><circle class="cls-6" cx="211.1" cy="57.42" r="1.18"/><path class="cls-6" d="M364.1,51.51a1.18,1.18,0,0,1-2.35,0,1.18,1.18,0,1,1,2.35,0Z"/><path class="cls-6" d="M316.82,63.75a1.18,1.18,0,1,1-1.18-1.18A1.17,1.17,0,0,1,316.82,63.75Z"/><circle class="cls-6" cx="452.7" cy="49.58" r="1.18"/><path class="cls-6" d="M441.51,86.41a1.18,1.18,0,1,1-1.18-1.18A1.17,1.17,0,0,1,441.51,86.41Z"/><circle class="cls-6" cx="418.49" cy="125.16" r="1.18"/><path class="cls-6" d="M338.61,170.58a1.18,1.18,0,1,1-1.18-1.18A1.17,1.17,0,0,1,338.61,170.58Z"/><circle class="cls-6" cx="310.37" cy="187.27" r="1.18"/><circle class="cls-6" cx="269.3" cy="238.57" r="1.18"/><circle class="cls-6" cx="261.81" cy="263.28" r="1.18"/><circle class="cls-6" cx="269.37" cy="303" r="1.18"/><path class="cls-6" d="M282.86,333.24a1.18,1.18,0,1,1-2.35,0,1.18,1.18,0,0,1,2.35,0Z"/><circle class="cls-6" cx="346.58" cy="350.95" r="1.18"/><circle class="cls-6" cx="397.64" cy="358.52" r="1.18"/><path class="cls-6" d="M417.88,363.46a1.18,1.18,0,1,1-1.18-1.17A1.18,1.18,0,0,1,417.88,363.46Z"/><circle class="cls-6" cx="475.29" cy="345.62" r="1.18"/><path class="cls-6" d="M480.19,309.75a1.18,1.18,0,1,1-1.18-1.18A1.17,1.17,0,0,1,480.19,309.75Z"/><circle class="cls-6" cx="466.39" cy="241.54" r="1.18"/><path class="cls-6" d="M451.41,228.18a1.18,1.18,0,1,1-1.18-1.17A1.18,1.18,0,0,1,451.41,228.18Z"/><circle class="cls-6" cx="450.48" cy="199.73" r="1.18"/><path class="cls-6" d="M299.81,210.34a1.18,1.18,0,1,1-2.35,0,1.18,1.18,0,0,1,2.35,0Z"/><path class="cls-6" d="M294.24,230.25a1.18,1.18,0,1,1-1.18-1.18A1.17,1.17,0,0,1,294.24,230.25Z"/><path class="cls-6" d="M295.26,280.28a1.18,1.18,0,1,1-1.17-1.18A1.17,1.17,0,0,1,295.26,280.28Z"/><circle class="cls-6" cx="436.2" cy="332.29" r="1.18"/><path class="cls-6" d="M449.64,319a1.18,1.18,0,1,1-1.18-1.17A1.18,1.18,0,0,1,449.64,319Z"/><circle class="cls-6" cx="460.86" cy="310.39" r="1.18"/><path class="cls-6" d="M487.73,297.24a1.18,1.18,0,1,1-2.35,0,1.18,1.18,0,0,1,2.35,0Z"/><path class="cls-6" d="M503.6,272.69a1.18,1.18,0,1,1-1.17-1.17A1.17,1.17,0,0,1,503.6,272.69Z"/><circle class="cls-6" cx="508.38" cy="247.9" r="1.18"/><path class="cls-6" d="M511.69,233.49a1.18,1.18,0,1,1-1.17-1.17A1.17,1.17,0,0,1,511.69,233.49Z"/><path class="cls-6" d="M485.74,232.84a1.18,1.18,0,1,1-1.17-1.17A1.17,1.17,0,0,1,485.74,232.84Z"/><circle class="cls-6" cx="495.84" cy="205.67" r="1.18"/><path class="cls-6" d="M500.81,208.23a1.18,1.18,0,1,1-1.17-1.18A1.17,1.17,0,0,1,500.81,208.23Z"/><path class="cls-6" d="M532.76,262.15a1.18,1.18,0,1,1-1.18-1.18A1.18,1.18,0,0,1,532.76,262.15Z"/><circle class="cls-6" cx="518.13" cy="287.89" r="1.18"/><path class="cls-6" d="M517.25,286.42a1.18,1.18,0,1,1-1.17-1.18A1.17,1.17,0,0,1,517.25,286.42Z"/><circle class="cls-6" cx="480.97" cy="371.14" r="1.18"/></g><circle class="cls-6" cx="306.3" cy="130.99" r="1.18"/><path class="cls-6" d="M372.73,152.9a1.18,1.18,0,1,1-1.18-1.18A1.17,1.17,0,0,1,372.73,152.9Z"/><circle class="cls-6" cx="297.82" cy="179.29" r="1.18"/><path class="cls-6" d="M310.4,159.4a1.18,1.18,0,1,1-1.18-1.18A1.17,1.17,0,0,1,310.4,159.4Z"/><path class="cls-6" d="M440.57,189.6a1.18,1.18,0,1,1-1.18-1.18A1.17,1.17,0,0,1,440.57,189.6Z"/><circle class="cls-6" cx="294.14" cy="217.88" r="1.18"/><path class="cls-6" d="M290.65,260.19a1.18,1.18,0,1,1-1.18-1.18A1.17,1.17,0,0,1,290.65,260.19Z"/><path class="cls-6" d="M457.5,246.22a1.18,1.18,0,1,1-1.18-1.18A1.17,1.17,0,0,1,457.5,246.22Z"/><circle class="cls-6" cx="468.7" cy="213.13" r="1.18"/><path class="cls-6" d="M419.85,154.69a1.18,1.18,0,1,1-2.35,0,1.18,1.18,0,0,1,2.35,0Z"/><circle class="cls-6" cx="440.4" cy="120.68" r="1.18"/><circle class="cls-6" cx="352.64" cy="107.33" r="1.18"/><path class="cls-6" d="M353.81,129.23a1.18,1.18,0,1,1-2.35,0,1.18,1.18,0,0,1,2.35,0Z"/><circle class="cls-6" cx="511.99" cy="278.16" r="1.18"/><path class="cls-6" d="M494.29,342.22a1.18,1.18,0,1,1-1.18-1.18A1.18,1.18,0,0,1,494.29,342.22Z"/><circle class="cls-6" cx="495.01" cy="390.34" r="1.18"/><path class="cls-6" d="M411.45,430a1.18,1.18,0,1,1-1.18-1.18A1.18,1.18,0,0,1,411.45,430Z"/><circle class="cls-6" cx="374.23" cy="434.81" r="1.18"/><circle class="cls-6" cx="357.13" cy="403.59" r="1.18"/><circle class="cls-6" cx="397.09" cy="397.91" r="1.18"/><path class="cls-6" d="M390.73,376a1.18,1.18,0,1,1-1.18-1.18A1.18,1.18,0,0,1,390.73,376Z"/><circle class="cls-6" cx="372.25" cy="379.83" r="1.18"/><circle class="cls-6" cx="212.1" cy="339.42" r="1.18"/><circle class="cls-6" cx="238.58" cy="365.9" r="1.18"/><path class="cls-6" d="M319.84,339.42a1.18,1.18,0,1,1-1.18-1.17A1.18,1.18,0,0,1,319.84,339.42Z"/><circle class="cls-6" cx="287.57" cy="280.19" r="1.18"/><path class="cls-6" d="M233,278.15a1.18,1.18,0,1,1-1.17-1.18A1.17,1.17,0,0,1,233,278.15Z"/><path class="cls-6" d="M138.3,47.79a1.18,1.18,0,1,1-2.35,0,1.18,1.18,0,0,1,2.35,0Z"/><path class="cls-6" d="M203.56,69.7a1.18,1.18,0,1,1-1.18-1.18A1.18,1.18,0,0,1,203.56,69.7Z"/><circle class="cls-6" cx="128.65" cy="96.09" r="1.18"/><circle class="cls-6" cx="140.05" cy="76.2" r="1.18"/><path class="cls-6" d="M271.4,106.4a1.18,1.18,0,1,1-1.18-1.18A1.18,1.18,0,0,1,271.4,106.4Z"/><circle class="cls-6" cx="124.97" cy="134.68" r="1.18"/><circle class="cls-6" cx="120.3" cy="176.99" r="1.18"/><path class="cls-6" d="M288.33,163a1.18,1.18,0,1,1-1.18-1.18A1.18,1.18,0,0,1,288.33,163Z"/><path class="cls-6" d="M300.7,129.93a1.18,1.18,0,1,1-2.35,0,1.18,1.18,0,0,1,2.35,0Z"/><path class="cls-6" d="M250.68,71.5a1.18,1.18,0,1,1-1.18-1.18A1.17,1.17,0,0,1,250.68,71.5Z"/><path class="cls-6" d="M272.4,37.48a1.18,1.18,0,1,1-1.17-1.18A1.17,1.17,0,0,1,272.4,37.48Z"/><path class="cls-6" d="M184.64,24.14a1.18,1.18,0,0,1-2.35,0,1.18,1.18,0,1,1,2.35,0Z"/><path class="cls-6" d="M184.64,46a1.18,1.18,0,1,1-1.18-1.18A1.17,1.17,0,0,1,184.64,46Z"/><circle class="cls-6" cx="342.82" cy="194.97" r="1.18"/><path class="cls-6" d="M325.11,259a1.18,1.18,0,0,1-2.35,0,1.18,1.18,0,1,1,2.35,0Z"/><path class="cls-6" d="M327,307.14a1.18,1.18,0,1,1-2.35,0,1.18,1.18,0,0,1,2.35,0Z"/><circle class="cls-6" cx="241.1" cy="346.84" r="1.18"/><circle class="cls-6" cx="205.06" cy="351.61" r="1.18"/><path class="cls-6" d="M189.13,320.4a1.18,1.18,0,0,1-2.35,0,1.18,1.18,0,1,1,2.35,0Z"/><path class="cls-6" d="M229.1,314.71a1.18,1.18,0,1,1-1.18-1.17A1.18,1.18,0,0,1,229.1,314.71Z"/><path class="cls-6" d="M221.55,292.76a1.18,1.18,0,1,1-1.17-1.17A1.17,1.17,0,0,1,221.55,292.76Z"/><path class="cls-6" d="M204.26,296.63a1.18,1.18,0,1,1-1.18-1.18A1.18,1.18,0,0,1,204.26,296.63Z"/><path class="cls-6" d="M44.11,256.22A1.18,1.18,0,1,1,42.93,255,1.18,1.18,0,0,1,44.11,256.22Z"/><circle class="cls-6" cx="69.4" cy="282.7" r="1.18"/><path class="cls-6" d="M150.66,256.22a1.18,1.18,0,1,1-1.17-1.17A1.17,1.17,0,0,1,150.66,256.22Z"/><circle class="cls-6" cx="118.4" cy="197" r="1.18"/><path class="cls-6" d="M63.87,195a1.18,1.18,0,1,1-1.18-1.18A1.17,1.17,0,0,1,63.87,195Z"/><path class="cls-6" d="M487.48,163.05a1.18,1.18,0,1,1-1.17-1.17A1.17,1.17,0,0,1,487.48,163.05Z"/><path class="cls-6" d="M552.74,185a1.18,1.18,0,1,1-1.18-1.18A1.18,1.18,0,0,1,552.74,185Z"/><path class="cls-6" d="M479,211.35a1.18,1.18,0,1,1-1.17-1.18A1.17,1.17,0,0,1,479,211.35Z"/><path class="cls-6" d="M490.41,191.46a1.18,1.18,0,1,1-1.18-1.18A1.18,1.18,0,0,1,490.41,191.46Z"/><circle class="cls-6" cx="619.4" cy="221.66" r="1.18"/><path class="cls-6" d="M475.33,249.94a1.18,1.18,0,1,1-1.18-1.18A1.18,1.18,0,0,1,475.33,249.94Z"/><path class="cls-6" d="M470.66,292.25a1.18,1.18,0,1,1-1.18-1.18A1.18,1.18,0,0,1,470.66,292.25Z"/><path class="cls-6" d="M637.51,278.28a1.18,1.18,0,1,1-1.18-1.18A1.18,1.18,0,0,1,637.51,278.28Z"/><circle class="cls-6" cx="648.71" cy="245.19" r="1.18"/><circle class="cls-6" cx="598.68" cy="186.76" r="1.18"/><circle class="cls-6" cx="620.41" cy="152.74" r="1.18"/><path class="cls-6" d="M533.83,139.4a1.18,1.18,0,1,1-1.18-1.18A1.17,1.17,0,0,1,533.83,139.4Z"/><path class="cls-6" d="M533.82,161.3a1.18,1.18,0,1,1-1.18-1.18A1.17,1.17,0,0,1,533.82,161.3Z"/><circle class="cls-6" cx="692" cy="310.23" r="1.18"/><path class="cls-6" d="M674.3,374.28a1.18,1.18,0,1,1-1.18-1.18A1.17,1.17,0,0,1,674.3,374.28Z"/><circle class="cls-6" cx="675.02" cy="422.4" r="1.18"/><path class="cls-6" d="M591.46,462.1a1.18,1.18,0,1,1-2.35,0,1.18,1.18,0,0,1,2.35,0Z"/><path class="cls-6" d="M555.42,466.87a1.18,1.18,0,1,1-1.18-1.17A1.18,1.18,0,0,1,555.42,466.87Z"/><circle class="cls-6" cx="537.14" cy="435.66" r="1.18"/><circle class="cls-6" cx="577.1" cy="429.97" r="1.18"/><path class="cls-6" d="M570.74,408a1.18,1.18,0,1,1-1.18-1.17A1.18,1.18,0,0,1,570.74,408Z"/><circle class="cls-6" cx="552.27" cy="411.89" r="1.18"/><circle class="cls-6" cx="392.11" cy="371.48" r="1.18"/><path class="cls-6" d="M419.76,398a1.18,1.18,0,1,1-1.17-1.18A1.17,1.17,0,0,1,419.76,398Z"/><path class="cls-6" d="M499.85,371.48a1.18,1.18,0,1,1-1.18-1.17A1.18,1.18,0,0,1,499.85,371.48Z"/><circle class="cls-6" cx="467.58" cy="312.26" r="1.18"/><path class="cls-6" d="M413.05,310.21a1.18,1.18,0,0,1-2.35,0,1.18,1.18,0,1,1,2.35,0Z"/><path class="cls-6" d="M319.71,176.82a1.18,1.18,0,1,1-2.35,0,1.18,1.18,0,0,1,2.35,0Z"/><path class="cls-6" d="M344.54,154.78a1.18,1.18,0,1,1-1.18-1.17A1.18,1.18,0,0,1,344.54,154.78Z"/><circle class="cls-6" cx="326.33" cy="168.02" r="1.18"/><path class="cls-6" d="M384.08,147.25a1.18,1.18,0,1,1-1.18-1.17A1.18,1.18,0,0,1,384.08,147.25Z"/><path class="cls-6" d="M409.55,169.06a1.18,1.18,0,0,1-2.35,0,1.18,1.18,0,1,1,2.35,0Z"/><path class="cls-6" d="M316.1,118a1.18,1.18,0,1,1-1.17-1.17A1.17,1.17,0,0,1,316.1,118Z"/><circle class="cls-6" cx="260.23" cy="163.36" r="1.18"/><path class="cls-6" d="M482.78,431.6a1.18,1.18,0,1,1-1.18-1.18A1.18,1.18,0,0,1,482.78,431.6Z"/><circle class="cls-7" cx="105.18" cy="92.1" r="60.26"/><path class="cls-8" d="M750.73,0V197.48A163.89,163.89,0,0,1,549.74,0Z"/><circle class="cls-9" cx="159.19" cy="392.97" r="70.11"/><circle class="cls-10" cx="588.73" cy="418.03" r="35.29"/></g></g></g></g></svg>